<?xml version="1.0" encoding="utf-8"?>
<!-- Generator: Adobe Illustrator 17.0.0, SVG Export Plug-In . SVG Version: 6.00 Build 0)  -->
<!DOCTYPE svg PUBLIC "-//W3C//DTD SVG 1.1//EN" "http://www.w3.org/Graphics/SVG/1.1/DTD/svg11.dtd">
<svg version="1.1" id="Layer_1" xmlns="http://www.w3.org/2000/svg" xmlns:xlink="http://www.w3.org/1999/xlink" x="0px" y="0px"
	 width="92.024px" height="92.024px" viewBox="0 0 92.024 92.024" enable-background="new 0 0 92.024 92.024" xml:space="preserve">
<g>
	<defs>
		<rect id="SVGID_1_" x="-208.99" y="114.961" width="42.402" height="34.191"/>
	</defs>
	<clipPath id="SVGID_2_">
		<use xlink:href="#SVGID_1_"  overflow="visible"/>
	</clipPath>
</g>
<g>
	<g>
		<path fill="#FFFFFF" d="M46.012,89.524C22.019,89.524,2.5,70.005,2.5,46.012S22.019,2.5,46.012,2.5s43.512,19.519,43.512,43.512
			S70.005,89.524,46.012,89.524z"/>
		<path fill="#389E98" d="M46.012,5c22.614,0,41.012,18.398,41.012,41.012S68.626,87.024,46.012,87.024S5,68.626,5,46.012
			S23.398,5,46.012,5 M46.012,0C20.6,0,0,20.6,0,46.012c0,25.412,20.6,46.012,46.012,46.012c25.412,0,46.012-20.6,46.012-46.012
			C92.024,20.6,71.424,0,46.012,0L46.012,0z"/>
	</g>
	<g>
		<path fill="#389E98" d="M48.477,47.412v-0.93c0-1.133-0.917-2.045-2.049-2.045c-1.133,0-2.046,0.912-2.046,2.045v0.93
			c0,1.129,0.913,2.046,2.046,2.046C47.56,49.458,48.477,48.541,48.477,47.412L48.477,47.412z M48.477,47.412"/>
		<path fill="#389E98" d="M49.882,48.545c-0.455,1.485-1.823,2.577-3.455,2.577c-1.633,0-3-1.092-3.456-2.577H28.865
			c-0.889,0-1.729-0.208-2.484-0.568v9.369c0,1.827,1.493,3.326,3.325,3.326h33.443c1.83,0,3.325-1.499,3.325-3.326V47.98
			c-0.756,0.356-1.595,0.564-2.485,0.564H49.882z M49.882,48.545"/>
		<path fill="#389E98" d="M63.85,31.721h-7.985c-0.479-3.012-3.094-5.326-6.24-5.326h-6.398c-3.147,0-5.761,2.314-6.244,5.326
			h-7.982c-1.904,0-3.463,1.499-3.463,3.329v7.673c0,1.839,1.49,3.329,3.325,3.329h13.953c0.045-0.958,0.458-1.819,1.108-2.439
			c0.017-0.021,0.041-0.033,0.061-0.053c0.147-0.13,0.296-0.256,0.458-0.366c0.057-0.036,0.126-0.064,0.187-0.101
			c0.134-0.078,0.268-0.159,0.411-0.215c0.113-0.049,0.239-0.078,0.356-0.11c0.106-0.032,0.204-0.073,0.309-0.094
			c0.232-0.049,0.475-0.073,0.719-0.073c0.247,0,0.486,0.024,0.718,0.073c0.106,0.021,0.203,0.061,0.309,0.094
			c0.117,0.032,0.239,0.061,0.353,0.11c0.145,0.06,0.28,0.137,0.414,0.215c0.061,0.036,0.126,0.064,0.187,0.101
			c0.162,0.11,0.313,0.236,0.454,0.366c0.021,0.02,0.045,0.032,0.065,0.053c0.65,0.625,1.059,1.481,1.108,2.439h13.953
			c1.835,0,3.325-1.489,3.325-3.325V35.05C67.313,33.22,65.754,31.721,63.85,31.721L63.85,31.721z M40.187,31.721
			c0.426-1.278,1.619-2.213,3.041-2.213h6.398c1.421,0,2.614,0.934,3.041,2.213H40.187z M40.187,31.721"/>
	</g>
</g>
</svg>
