<svg version="1.1" id="Layer_1" xmlns="http://www.w3.org/2000/svg" xmlns:xlink="http://www.w3.org/1999/xlink" x="0px" y="0px"
	 width="497.959px" height="48.469px" viewBox="0 0 497.959 48.469" enable-background="new 0 0 497.959 48.469"
	 xml:space="preserve" class="logo" preserveAspectRatio="xMidYMid meet">
<g>
	<g>
		<path fill="#FFFFFF" d="M39.369,17.531h-6.592v-7.184H16.602v10.93H30.58v6.816H16.602v10.377h16.174v-7.184h6.592v14H4.028
			v-6.508h5.25V10.04h-5.25V3.531h35.34V17.531z"/>
		<path fill="#FFFFFF" d="M88.136,10.04L71.473,45.53h-6.958L47.852,10.04h-4.883V3.531h20.387v6.508h-7.141l11.78,25.666
			l11.78-25.666h-7.141V3.531h20.386v6.508H88.136z"/>
		<path fill="#FFFFFF" d="M130.923,17.531h-6.592v-7.184h-16.175v10.93h13.978v6.816h-13.978v10.377h16.175v-7.184h6.592v14h-35.34
			v-6.508h5.249V10.04h-5.249V3.531h35.34V17.531z"/>
		<path fill="#FFFFFF" d="M179.142,45.285h-15.625v-6.202l-6.531-8.044h-7.935v7.737h5.494v6.508h-18.067v-6.508h5.249V10.04h-5.249
			V3.531h21.606c9.461,0,15.687,5.588,15.687,14c0,5.956-3.296,10.377-8.789,12.403l7.263,8.842h6.898V45.285z M158.083,24.715
			c5.066,0,8.484-2.763,8.484-7.184c0-4.36-3.418-7.184-8.484-7.184h-9.033v14.368H158.083z"/>
		<path fill="#FFFFFF" d="M216.74,17.531h-6.592v-7.184h-8.973v28.429h6.959v6.508h-21.241v-6.508h6.958V10.347h-8.973v7.184h-6.592
			v-14h38.453V17.531z"/>
		<path fill="#FFFFFF" d="M264.837,24.408c0,12.034-9.644,21.736-21.607,21.736s-21.606-9.702-21.606-21.736
			c0-12.035,9.643-21.737,21.606-21.737S264.837,12.373,264.837,24.408z M257.451,24.408c0-8.167-6.103-14.859-14.16-14.859
			c-8.118,0-14.222,6.693-14.222,14.859c0,8.166,6.104,14.859,14.222,14.859C251.348,39.268,257.451,32.574,257.451,24.408z"/>
		<path fill="#FFFFFF" d="M310.674,10.04v35.245h-5.738l-23.621-28.06v21.552h5.188v6.508h-17.761v-6.508h5.249V10.04h-5.249V3.531
			h10.254l24.354,29.227V10.04h-5.25V3.531h17.762v6.508H310.674z"/>
		<path fill="#FFFFFF" d="M374.637,33.741c0,7-5.737,11.543-14.954,11.543h-23.315v-6.508h5.249V10.04h-5.249V3.531h22.522
			c8.789,0,13.855,4.237,13.855,10.684c0,4.483-2.381,8.167-6.164,9.456C372.135,24.777,374.637,29.014,374.637,33.741z
			 M348.941,21.154h9.461c5.127,0,7.446-2.272,7.446-5.772c0-3.377-2.319-5.342-7.446-5.342h-9.461V21.154z M359.5,38.776
			c5.433,0,7.935-2.579,7.935-5.833c0-3.377-2.502-5.158-7.264-5.158h-11.231v10.991H359.5z"/>
		<path fill="#FFFFFF" d="M423.039,24.408c0,12.034-9.644,21.736-21.607,21.736c-11.963,0-21.606-9.702-21.606-21.736
			c0-12.035,9.643-21.737,21.606-21.737C413.395,2.672,423.039,12.373,423.039,24.408z M415.654,24.408
			c0-8.167-6.104-14.859-14.16-14.859c-8.118,0-14.222,6.693-14.222,14.859c0,8.166,6.104,14.859,14.222,14.859
			C409.549,39.268,415.654,32.574,415.654,24.408z"/>
		<path fill="#FFFFFF" d="M468.876,10.04v35.245h-5.737l-23.621-28.06v21.552h5.189v6.508h-17.762v-6.508h5.249V10.04h-5.249V3.531
			h10.254l24.353,29.227V10.04h-5.249V3.531h17.762v6.508H468.876z"/>
		<path fill="#FFFFFF" d="M489.872,38.776h5.188v6.508h-17.761v-6.508h5.249V10.04h-5.249V3.531h17.761v6.508h-5.188V38.776z"/>
	</g>
</g>
</svg>
