<svg version="1.1" id="Layer_1" xmlns="http://www.w3.org/2000/svg" xmlns:xlink="http://www.w3.org/1999/xlink" x="0px" y="0px"
	 viewBox="-49 162 512 470" style="enable-background:new -49 162 512 470;" xml:space="preserve" class="icon-aeroplane">
<g>
	<path style="fill:#FFFFFF;" d="M237.376,235.633c-0.462-1.232-2.34-5.511-7.19-9.591c-4.188-3.526-11.693-7.713-23.664-7.713
		c-19.191,0-28.421,10.87-30.854,17.305c-2.055,5.419,0.685,11.485,6.112,13.549c5.281,1.986,11.162-0.539,13.371-5.682
		c0.37-0.646,2.779-4.157,11.37-4.157c8.583,0,10.993,3.51,11.37,4.157c1.694,3.941,5.551,6.359,9.646,6.359
		c1.232,0,2.494-0.216,3.726-0.678C236.683,247.119,239.422,241.052,237.376,235.633z"/>
	<path style="fill:#FFFFFF;" d="M453.489,419.154l-46.804-23.741v-5.973c0-5.805-4.696-10.5-10.5-10.5
		c-4.295,0-7.99,2.571-9.607,6.266l-42.955-21.77v-5.419c0-5.805-4.696-10.5-10.499-10.5c-4.127,0-7.667,2.371-9.392,5.82
		l-66.681-33.825c1.185-42.477,2.017-74.163,2.017-80.167c0-13.148-4.988-30.622-12.687-44.51
		c-10.407-18.737-24.564-29.067-39.86-29.067s-29.445,10.331-39.853,29.067c-7.713,13.888-12.701,31.362-12.701,44.51
		c0,6.035,0.84,37.936,2.04,80.645l-65.734,33.348c-1.724-3.449-5.281-5.82-9.399-5.82c-5.805,0-10.508,4.696-10.508,10.5v5.419
		l-42.939,21.77c-1.632-3.695-5.319-6.266-9.615-6.266c-5.804,0-10.508,4.696-10.508,10.5v5.973l-46.795,23.74
		c-3.534,1.801-5.758,5.419-5.758,9.376v42.046c0,3.156,1.424,6.159,3.88,8.145c1.886,1.539,4.234,2.356,6.629,2.356
		c0.716,0,1.432-0.061,2.139-0.216l192.104-39.937c0.793,26.912,1.579,53.301,2.286,76.888l-55.403,38.736
		c-2.817,1.971-4.488,5.189-4.488,8.622v42.032c0,3.388,1.632,6.574,4.388,8.545c1.809,1.293,3.949,1.971,6.12,1.971
		c1.131,0,2.271-0.185,3.379-0.554l48.49-16.458c0.107,3.541,0.177,5.882,0.208,6.821c0.169,5.682,4.826,10.193,10.508,10.193
		h21.023l0,0c0,5.805,4.703,10.515,10.508,10.515c5.805,0,10.508-4.71,10.508-10.515l0,0h21.023c5.682,0,10.331-4.511,10.516-10.193
		c0.016-0.97,0.093-3.418,0.216-7.144l49.421,16.782c1.109,0.37,2.248,0.554,3.388,0.554c2.171,0,4.311-0.678,6.128-1.971
		c2.74-1.971,4.373-5.157,4.373-8.545V565.17c0-3.433-1.663-6.651-4.48-8.622l-56.334-39.382
		c0.693-23.479,1.478-49.715,2.263-76.441l193.05,40.137c0.708,0.154,1.432,0.216,2.156,0.216c2.387,0,4.742-0.816,6.621-2.356
		c2.463-1.987,3.88-4.988,3.88-8.145V428.53C459.247,424.573,457.03,420.955,453.489,419.154z M291.092,570.635v21.909
		l-40.738-13.811l1.046-35.842L291.092,570.635z M-24.226,457.643v-22.662l180.888-91.744c0.685,23.941,1.447,50.099,2.217,76.349
		L-24.226,457.643z M122.914,592.543v-21.909l39.629-27.697c0.408,13.687,0.77,25.818,1.07,35.795L122.914,592.543z M217.03,596.701
		v-52.562c0-5.805-4.703-10.5-10.508-10.5c-5.805,0-10.508,4.696-10.508,10.5v52.562h-10.823c-0.093-2.91-0.2-6.389-0.315-10.377
		c0-0.154,0.008-0.293,0.008-0.446l-1.84-63.061c-0.016-0.4-0.054-0.8-0.107-1.185c-3.11-104.139-7.944-268.23-7.944-282.286
		c0-17.751,14.272-52.546,31.532-52.546s31.531,34.795,31.531,52.546c0,18.599-8.451,299.853-10.206,357.357L217.03,596.701
		L217.03,596.701z M438.216,457.643l-184.043-38.258c0.77-26.358,1.539-52.623,2.217-76.642l181.826,92.237V457.643z"/>
</g>
</svg>
