<svg version="1.1" id="Layer_1" xmlns="http://www.w3.org/2000/svg" xmlns:xlink="http://www.w3.org/1999/xlink" x="0px" y="0px"
	 viewBox="0 0 108 108" style="enable-background:new 0 0 108 108;" xml:space="preserve" class="icon-book">
<style type="text/css">
	.st0{fill:#FFFFFF;}
</style>
<g>
	<path class="st0" d="M97.8,15.4H45.2c-1,0-1.8,0.8-1.8,1.8c0,1,0.8,1.8,1.8,1.8h50.8v78.9c0,2.8-2.5,5.3-5.3,5.3H17.2
		c-2.8,0-5.3-2.5-5.3-5.3V17.3c1.1,0.8,2.4,1.2,3.5,1.4v79.1c0,1,0.8,1.8,1.8,1.8c1,0,1.8-0.8,1.8-1.8V17.1c0-1-0.8-1.7-1.7-1.8
		c-0.9,0-5.3-0.3-5.3-5.3V8.3c0-1.9,1.6-3.5,3.5-3.5h82.4c1,0,1.8-0.8,1.8-1.8c0-1-0.8-1.8-1.8-1.8H15.4c-3.9,0-7,3.1-7,7v89.4
		c0,4.8,4,8.8,8.8,8.8h73.6c4.8,0,8.8-4,8.8-8.8V17.1C99.6,16.1,98.8,15.4,97.8,15.4L97.8,15.4z M97.8,15.4"/>
	<path class="st0" d="M45.2,50.4h10.5c1,0,1.8-0.8,1.8-1.8c0-1-0.8-1.8-1.8-1.8H45.2c-1,0-1.8,0.8-1.8,1.8
		C43.5,49.6,44.3,50.4,45.2,50.4L45.2,50.4z M45.2,50.4"/>
	<path class="st0" d="M96.1,10.1c0-1-0.8-1.8-1.8-1.8H38.2c-1,0-1.8,0.8-1.8,1.8v16.8l-4-4c-0.7-0.7-1.8-0.7-2.5,0l-4,4V10.1
		c0-1-0.8-1.8-1.8-1.8h-7c-1,0-1.8,0.8-1.8,1.8c0,1,0.8,1.8,1.8,1.8h5.3v19.3c0,0.7,0.4,1.3,1.1,1.6c0.7,0.3,1.4,0.1,1.9-0.4
		l5.8-5.8l5.8,5.8c0.3,0.3,0.8,0.5,1.2,0.5c0.2,0,0.5,0,0.7-0.1c0.7-0.3,1.1-0.9,1.1-1.6V11.8h54.3C95.3,11.8,96.1,11.1,96.1,10.1
		L96.1,10.1z M96.1,10.1"/>
	<path class="st0" d="M33,38.1v28c0,1,0.8,1.8,1.8,1.8h38.6c1,0,1.8-0.8,1.8-1.8v-28c0-1-0.8-1.8-1.8-1.8H34.7
		C33.8,36.4,33,37.2,33,38.1L33,38.1z M36.5,39.9h35.1v24.5H36.5V39.9z M36.5,39.9"/>
	<path class="st0" d="M62.8,53.9H45.2c-1,0-1.8,0.8-1.8,1.8c0,1,0.8,1.8,1.8,1.8h17.5c1,0,1.8-0.8,1.8-1.8
		C64.5,54.7,63.7,53.9,62.8,53.9L62.8,53.9z M62.8,53.9"/>
</g>
</svg>
