<svg version="1.1" id="Layer_1" xmlns="http://www.w3.org/2000/svg" xmlns:xlink="http://www.w3.org/1999/xlink" x="0px" y="0px"
	 viewBox="0 0 90.58 90.694" style="enable-background:new 0 0 90.58 90.694;" xml:space="preserve" class="icon-instagram">
<g>
	<path style="fill:#6A453B;" d="M58.669,24.35H31.916c-4.273,0-7.744,3.471-7.744,7.744v26.749c0,4.273,3.471,7.749,7.744,7.749
		h26.753c4.269,0,7.745-3.476,7.745-7.749V32.094C66.414,27.822,62.937,24.35,58.669,24.35L58.669,24.35z M45.29,59.376
		c-7.665,0-13.906-6.241-13.906-13.906c0-7.666,6.241-13.907,13.906-13.907c7.671,0,13.907,6.24,13.907,13.907
		C59.196,53.135,52.956,59.376,45.29,59.376L45.29,59.376z M59.646,34.438c-1.816,0-3.291-1.474-3.291-3.29
		c0-1.813,1.475-3.291,3.291-3.291c1.811,0,3.291,1.479,3.291,3.291C62.937,32.964,61.457,34.438,59.646,34.438L59.646,34.438z
		 M59.646,34.438"/>
	<path style="fill:#6A453B;" d="M45.29,37.442c-4.424,0-8.028,3.599-8.028,8.028c0,4.429,3.604,8.031,8.028,8.031
		c4.429,0,8.033-3.603,8.033-8.031C53.322,41.046,49.718,37.442,45.29,37.442L45.29,37.442z M45.29,37.442"/>
	<path style="fill:#6A453B;" d="M45.29,0.469c-24.785,0-44.878,20.093-44.878,44.878c0,24.786,20.093,44.878,44.878,44.878
		s44.88-20.093,44.88-44.878C90.169,20.562,70.075,0.469,45.29,0.469L45.29,0.469z M72.288,58.844
		c0,7.515-6.109,13.623-13.619,13.623H31.916c-7.51,0-13.623-6.108-13.623-13.623V32.094c0-7.509,6.113-13.623,13.623-13.623h26.753
		c7.51,0,13.619,6.114,13.619,13.623V58.844z M72.288,58.844"/>
</g>
</svg>
