<svg version="1.1" id="Layer_1" xmlns="http://www.w3.org/2000/svg" xmlns:xlink="http://www.w3.org/1999/xlink" x="0px" y="0px"
	 viewBox="0 0 90.58 90.694" style="enable-background:new 0 0 90.58 90.694;" xml:space="preserve" class="icon-googleplus">
<g>
	<path style="fill:#DC4E41;" d="M45.29,0.468c-24.785,0-44.879,20.094-44.879,44.879S20.505,90.226,45.29,90.226
		s44.879-20.094,44.879-44.879S70.075,0.468,45.29,0.468z M48.462,59.531c-3.153,4.058-8.144,6.144-13.194,6.298
		c-2.296,0.07-4.604-0.258-6.759-0.982c-6.399-2.102-11.272-8.005-12.283-14.622c-0.144-0.945-0.21-1.905-0.19-2.87
		c-0.363-9.543,7.996-18.359,17.547-18.473c4.867-0.414,9.601,1.477,13.289,4.559c-1.512,1.66-3.051,3.305-4.691,4.84
		c-0.977-0.593-2.015-1.141-3.09-1.585c-2.496-1.029-5.2-1.483-7.848-0.552c-5.73,1.629-9.342,8.074-7.91,13.803
		c0.096,0.382,0.214,0.76,0.355,1.134c0.332,1.108,0.851,2.122,1.501,3.034c0.038,0.053,0.069,0.111,0.107,0.163
		c0.117,0.159,0.251,0.304,0.377,0.455c0.126,0.152,0.244,0.311,0.378,0.456c0.063,0.068,0.134,0.127,0.198,0.194
		c0.484,0.5,1.006,0.962,1.572,1.368c0.177,0.127,0.365,0.237,0.548,0.354c0.149,0.095,0.293,0.199,0.446,0.288
		c3.078,1.778,6.948,2.216,10.298,0.739c3.082-1.101,5.113-3.945,6.008-7.004c-3.535-0.07-7.07-0.027-10.602-0.125
		c-0.011-2.101-0.019-4.195-0.011-6.297c5.894-0.011,11.797-0.027,17.699,0.024c0.008,0.111,0.012,0.223,0.019,0.334
		C52.534,50.117,51.738,55.482,48.462,59.531z M74.266,49.988c-1.757,0.008-3.523,0.019-5.281,0.027
		c-0.019,1.766-0.027,3.524-0.035,5.293c-1.758-0.012-3.516,0-5.266,0c-0.019-1.769-0.019-3.527-0.035-5.285
		c-1.758-0.02-3.527-0.027-5.285-0.035v-5.266c1.758-0.008,3.516-0.019,5.285-0.035c0.008-1.758,0.028-3.523,0.043-5.285h5.258
		c0.008,1.762,0.023,3.527,0.035,5.285c1.758,0.019,3.524,0.027,5.281,0.035V49.988z"/>
	<path style="fill:#DC4E41;" d="M26.25,55.384c0.484,0.5,1.006,0.962,1.572,1.368C27.256,56.346,26.734,55.883,26.25,55.384z"/>
	<path style="fill:#DC4E41;" d="M26.051,55.19c-0.134-0.145-0.252-0.304-0.378-0.456C25.8,54.886,25.918,55.045,26.051,55.19z"/>
	<path style="fill:#DC4E41;" d="M25.189,54.115c0.038,0.053,0.069,0.111,0.107,0.163C25.258,54.226,25.227,54.168,25.189,54.115z"/>
	<path style="fill:#DC4E41;" d="M28.37,57.105c0.149,0.095,0.293,0.199,0.446,0.288C28.663,57.304,28.519,57.2,28.37,57.105z"/>
	<path style="fill:#DC4E41;" d="M31.239,36.144c-5.731,1.629-9.344,8.076-7.906,13.803c-1.432-5.729,2.181-12.174,7.91-13.803
		c2.648-0.931,5.352-0.477,7.848,0.552C36.595,35.666,33.891,35.21,31.239,36.144z"/>
	<path style="fill:#DC4E41;" d="M48.458,59.531c-3.15,4.058-8.139,6.144-13.19,6.298c5.05-0.154,10.041-2.24,13.194-6.298
		c3.276-4.049,4.072-9.414,3.765-14.467C52.53,50.119,51.737,55.483,48.458,59.531z"/>
	<path style="fill:#DC4E41;" d="M63.684,55.304c-0.019-1.765-0.019-3.523-0.035-5.281c0.016,1.758,0.016,3.516,0.035,5.285
		c1.75,0,3.508-0.012,5.266,0c0.008-1.769,0.016-3.527,0.035-5.293c-0.019,1.766-0.027,3.524-0.035,5.289
		C67.192,55.296,65.431,55.304,63.684,55.304z"/>
	<path style="fill:#FFFFFF;" d="M27.822,56.752c0.177,0.127,0.365,0.237,0.548,0.354C28.187,56.988,27.999,56.878,27.822,56.752z"/>
	<path style="fill:#FFFFFF;" d="M42.181,38.281c-0.977-0.593-2.014-1.141-3.09-1.585C40.167,37.14,41.204,37.688,42.181,38.281z"/>
	<path style="fill:#FFFFFF;" d="M25.297,54.278c0.117,0.159,0.251,0.304,0.377,0.455C25.548,54.582,25.414,54.437,25.297,54.278z"/>
	<path style="fill:#FFFFFF;" d="M52.208,44.734c0.008,0.11,0.012,0.22,0.019,0.33c-0.007-0.111-0.011-0.223-0.019-0.334
		c-5.902-0.051-11.805-0.035-17.699-0.024c-0.008,2.102,0,4.196,0.011,6.297c-0.007-2.101-0.019-4.195-0.007-6.297
		C40.403,44.699,46.306,44.679,52.208,44.734z"/>
	<path style="fill:#FFFFFF;" d="M39.114,58.136c3.082-1.105,5.117-3.949,6.008-7.008c-0.895,3.059-2.926,5.903-6.008,7.004
		c-3.351,1.477-7.22,1.039-10.298-0.739C31.894,59.171,35.763,59.611,39.114,58.136z"/>
	<path style="fill:#FFFFFF;" d="M25.189,54.115c-0.651-0.912-1.169-1.926-1.501-3.034c-0.142-0.374-0.26-0.752-0.355-1.134
		c0.096,0.383,0.214,0.763,0.355,1.138C24.02,52.191,24.539,53.204,25.189,54.115z"/>
	<path style="fill:#FFFFFF;" d="M16.226,50.225c1.011,6.617,5.884,12.52,12.283,14.622c2.154,0.724,4.463,1.053,6.759,0.982
		c-2.295,0.07-4.602-0.259-6.755-0.982C22.111,62.745,17.237,56.842,16.226,50.225z"/>
	<path style="fill:#FFFFFF;" d="M26.25,55.384c-0.064-0.066-0.136-0.126-0.198-0.194C26.114,55.258,26.185,55.317,26.25,55.384z"/>
	<path style="fill:#FFFFFF;" d="M68.985,44.687c-0.012-1.758-0.027-3.523-0.035-5.285h-5.258c1.75,0,3.5,0,5.258,0.004
		C68.958,41.164,68.973,42.929,68.985,44.687z"/>
</g>
</svg>
