<svg version="1.1" id="Layer_1" xmlns="http://www.w3.org/2000/svg" xmlns:xlink="http://www.w3.org/1999/xlink" x="0px" y="0px"
	 viewBox="0 0 108 108" style="enable-background:new 0 0 108 108;" xml:space="preserve" class="icon-coin">
<g>
	<path fill="#FFFFFF" d="M35.7,38.7l-0.5,0.2l6.1,1.3c4.9,1,10.2,1.6,15.7,1.6c2.8,0,5.6-0.1,8.3-0.4c4.6-0.4,8.9-1.2,12.7-2.2l0.5-0.1
		l-0.1,0c12-3.3,19.4-9.3,19.4-14.8c0-7.8-15.1-15.8-40.4-15.8c-25.3,0-40.4,8-40.4,15.8C17.1,29.5,24.2,35.3,35.7,38.7L35.7,38.7z
		 M51.3,31c-2.9-0.9-4.5-2.5-4.8-4.7L46.3,25l-1.2-0.3c-0.3-0.1-0.5-0.1-0.6-0.2l0.2-0.8c0.1-0.1,0.4-0.4,1.2-0.6l0.8-0.2l0.3-0.8
		c0.3-0.8,0.8-1.5,1.4-2.1c0.3-0.3,0.5-0.5,0.7-0.6c0.6-0.5,1-1,1.1-1.5c2.1,0.7,4.4,0.8,6.1,0.7c0.2,0,0.5,0,0.8,0
		c7.5,0,9.3,2.1,10,3.6l0.3,0.7l0.8,0.2c0.7,0.2,1.1,0.5,1.2,0.6l0.3,0.8c-0.1,0.1-0.3,0.1-0.6,0.2L67.9,25l-0.2,1.2
		c-0.4,2.2-2,3.8-4.8,4.7l-1.4,0.4l0.4,3.3c0.1,1.2,1,2.1,2.2,2.6l1.3,0.5c-0.4,0-0.9,0.1-1.3,0.1c-2.1,0.2-4.3,0.3-6.6,0.3
		c-3.1,0-5.9-0.2-8.6-0.4l1.2-0.4c1.2-0.5,2.1-1.5,2.2-2.6l0.4-3.3L51.3,31z M57.5,11.8c24.6,0,36.9,7.9,36.9,12.3
		c0,3.6-7.6,9.8-21.8,12.6L65.3,34l0-0.2c3.5-1.5,5-3.9,5.6-5.9c0.8-0.4,1.5-0.9,1.9-1.6c0.4-0.8,0.5-1.6,0.3-2.5l-0.3-1.1
		c-0.4-1.2-1.4-2.1-2.8-2.7c-2.6-4.4-8.5-4.9-12.9-4.9c-0.3,0-0.6,0-0.9,0c-2,0.1-3.7-0.1-5-0.6c-0.7-0.3-1-0.4-1.1-0.5
		c-0.7-0.5-1.7-0.5-2.3-0.2l-1.1,0.6v1.1c0,0.3,0,0.7,0.1,1.2c0,0,0,0.1,0,0.1c0,0-0.1,0-0.1,0.1c-0.2,0.2-0.5,0.4-0.8,0.7
		c-0.7,0.7-1.3,1.5-1.8,2.4c-1.4,0.6-2.4,1.6-2.8,2.7l-0.3,1.1c-0.3,0.9-0.2,1.7,0.3,2.5c0.4,0.7,1,1.2,1.9,1.6
		c0.6,2.1,2.1,4.4,5.6,5.9l0,0.2l-7.2,2.6c-13.7-2.8-21-8.9-21-12.5C20.6,19.7,32.9,11.8,57.5,11.8L57.5,11.8z M57.5,11.8"/>
	<path fill="#FFFFFF" d="M96.2,53.4v-0.4c5.5-3.9,8.8-8.7,8.8-14V24.1c0-13-20.4-22.9-47.5-22.9C30.4,1.2,10,11.1,10,24.1v4
		c-5.7,3.8-8.8,8.5-8.8,13.6v14.9c0,5.8,3.9,11,10.6,15.1v11.2c0,13.4,20.9,23.8,47.5,23.8c26.6,0,47.5-10.5,47.5-23.8V68.1
		C106.8,62.5,103.1,57.4,96.2,53.4L96.2,53.4z M103.2,68.1c0,11.2-20.5,21.1-44,21.1c-1,0-2,0-3-0.1c-0.3,0-0.6,0-0.9,0
		c-0.9,0-1.7-0.1-2.6-0.2c-0.6,0-1.1-0.1-1.7-0.1c-0.2,0-0.5-0.1-0.7-0.1c-14.5-1.6-26.8-6.8-32.2-13.4c-0.1-0.1-0.1-0.2-0.2-0.3
		c-0.1-0.1-0.2-0.2-0.2-0.3c2.5,1.1,5.2,2,8.1,2.8c7.8,5.1,20,8.1,33.4,8.1c23.8,0,40.4-9.2,40.4-17.5c0-2.4-1.5-4.9-4.3-7.1
		c0.1-0.1,0.1-0.3,0.1-0.4c0.1-0.2,0.1-0.4,0.2-0.5c0.1-0.2,0.1-0.4,0.2-0.6c0-0.2,0.1-0.4,0.1-0.6c0-0.2,0.1-0.4,0.1-0.6
		c0-0.2,0.1-0.4,0.1-0.6c0-0.1,0-0.1,0-0.2C99.8,59.9,103.2,63.5,103.2,68.1L103.2,68.1z M66.5,92.4c0.1,0,0.1,0,0.2,0
		c1-0.1,2-0.2,3-0.3c0.3,0,0.5-0.1,0.8-0.1c1-0.1,1.9-0.3,2.9-0.4v10.5c-2.3,0.4-4.6,0.7-7,0.8V92.4C66.4,92.4,66.5,92.4,66.5,92.4
		L66.5,92.4z M76.9,90.9c0.1,0,0.2-0.1,0.3-0.1c1-0.2,1.9-0.4,2.8-0.6c0.1,0,0.2-0.1,0.4-0.1c0.6-0.2,1.2-0.3,1.8-0.5v10.5
		c-1.7,0.5-3.5,0.9-5.3,1.3V90.9z M85.6,88.5c0.1,0,0.2-0.1,0.3-0.1c0.1-0.1,0.3-0.1,0.4-0.1c0.7-0.3,1.4-0.5,2.1-0.8
		c0.2-0.1,0.4-0.2,0.6-0.3l0.1,0v10.5c-1.1,0.5-2.3,1-3.5,1.4L85.6,88.5L85.6,88.5z M92.7,85.5c0.3-0.2,0.6-0.3,0.9-0.5
		c0.2-0.1,0.3-0.2,0.5-0.3c0.7-0.4,1.3-0.8,2-1.2c0,0,0.1-0.1,0.1-0.1v10.2c-1.1,0.8-2.2,1.5-3.5,2.2L92.7,85.5L92.7,85.5z
		 M22.4,83.5c1.1,0.7,2.3,1.4,3.5,2v10.4c-1.3-0.7-2.4-1.4-3.5-2.2V83.5z M11.8,57.2c0.1,0,0.1,0.1,0.1,0.1c0.6,0.4,1.3,0.8,2,1.2
		c0.2,0.1,0.3,0.2,0.5,0.3c0.3,0.2,0.6,0.3,0.9,0.5v8.9h-2.5c-0.3-0.2-0.7-0.4-1-0.7V57.2z M19.5,61.1c0.7,0.3,1.4,0.6,2.1,0.8
		c0.1,0,0.3,0.1,0.4,0.1c0.1,0,0.2,0.1,0.3,0.1v10.5c-1.2-0.4-2.4-0.9-3.5-1.4V60.8l0.1,0C19.1,60.9,19.3,61,19.5,61.1L19.5,61.1z
		 M28.1,63.8c0.9,0.2,1.8,0.4,2.8,0.6c0.1,0,0.2,0,0.3,0.1v10.5c-0.1,0-0.2,0-0.3-0.1c-0.9-0.2-1.9-0.4-2.8-0.6
		c-0.7-0.2-1.5-0.4-2.2-0.6V63.3c0.6,0.2,1.2,0.3,1.8,0.5C27.8,63.8,27.9,63.8,28.1,63.8L28.1,63.8z M38.3,65.7c1,0.1,2,0.2,3,0.3
		c0.1,0,0.1,0,0.2,0c0.1,0,0.2,0,0.2,0v10.5c-1.2-0.1-2.4-0.2-3.6-0.3c-0.6-0.1-1.1-0.1-1.7-0.2c-0.6-0.1-1.1-0.2-1.7-0.3V65.2
		c1,0.2,1.9,0.3,2.9,0.4C37.8,65.6,38.1,65.7,38.3,65.7L38.3,65.7z M48.7,66.3c1.2,0,2.3,0,3.5-0.1v10.6c0,0-0.1,0-0.1,0
		c-1.1,0-2.3,0.1-3.4,0.1c-1.2,0-2.4-0.1-3.5-0.1V66.2c0.1,0,0.2,0,0.2,0C46.5,66.3,47.6,66.3,48.7,66.3L48.7,66.3z M13.6,33.4
		C13.6,33.4,13.6,33.5,13.6,33.4c0.5,0.6,0.9,1.1,1.3,1.5c0.1,0.1,0.2,0.2,0.3,0.3c0.4,0.4,0.8,0.8,1.3,1.2c0.1,0.1,0.2,0.2,0.3,0.3
		c0.1,0.1,0.2,0.2,0.3,0.3v9.8c-2.3-2.4-3.5-5.1-3.5-7.8V33.4z M20.6,39.6c0.1,0,0.1,0.1,0.1,0.1c0.6,0.4,1.3,0.8,2,1.2
		c0.2,0.1,0.3,0.2,0.5,0.3c0.3,0.2,0.6,0.3,0.9,0.5V52c-1.3-0.7-2.4-1.4-3.5-2.2V39.6z M27.6,43.2l0.1,0c0.2,0.1,0.4,0.2,0.6,0.2
		c0.7,0.3,1.4,0.6,2.1,0.8c0.1,0,0.3,0.1,0.4,0.1c0.1,0,0.2,0.1,0.3,0.1v10.5c-1.2-0.4-2.4-0.9-3.5-1.4V43.2z M34.7,45.7
		c0.6,0.2,1.2,0.3,1.8,0.5c0.1,0,0.2,0.1,0.4,0.1c0.9,0.2,1.8,0.4,2.8,0.6c0.1,0,0.2,0,0.3,0.1v10.5c-1.8-0.4-3.6-0.8-5.3-1.3V45.7z
		 M43.4,47.6c1,0.2,1.9,0.3,2.9,0.4c0.2,0,0.5,0.1,0.8,0.1c1,0.1,2,0.2,3,0.3c0.1,0,0.1,0,0.2,0c0.1,0,0.1,0,0.2,0V59
		c-2.4-0.2-4.8-0.5-7-0.8V47.6z M57.5,48.7c1.1,0,2.2,0,3.3-0.1c0.1,0,0.2,0,0.2,0v10.5c-1.2,0.1-2.3,0.1-3.5,0.1
		c-1.2,0-2.4,0-3.5-0.1V48.7c0.1,0,0.2,0,0.2,0C55.3,48.7,56.4,48.7,57.5,48.7L57.5,48.7z M64.9,48.4c1-0.1,2-0.2,3-0.3
		c0.3,0,0.5-0.1,0.8-0.1c1-0.1,1.9-0.3,2.9-0.4v10.5c-0.7,0.1-1.3,0.2-2,0.3c-0.4,0-0.7,0.1-1,0.1c-1.3,0.2-2.7,0.3-4,0.4V48.5
		c0.1,0,0.2,0,0.2,0C64.8,48.4,64.9,48.4,64.9,48.4L64.9,48.4z M78.2,46.3c0.1,0,0.2-0.1,0.4-0.1c0.6-0.2,1.2-0.3,1.8-0.5v10.5
		c-0.2,0.1-0.5,0.1-0.7,0.2h0c-0.4,0.1-0.8,0.2-1.2,0.3c-1,0.3-1.9,0.5-3,0.7c-0.1,0-0.3,0.1-0.4,0.1V47c0.1,0,0.2-0.1,0.3-0.1
		C76.3,46.7,77.3,46.5,78.2,46.3L78.2,46.3z M84.6,44.3c0.7-0.3,1.4-0.5,2.1-0.8c0.2-0.1,0.4-0.2,0.6-0.3l0.1,0v10.5
		c-1.1,0.5-2.3,1-3.5,1.4V44.6c0.1,0,0.2-0.1,0.3-0.1C84.3,44.4,84.4,44.4,84.6,44.3L84.6,44.3z M92.3,40.8c0.7-0.4,1.3-0.8,2-1.2
		c0.1,0,0.1-0.1,0.1-0.1v10.2c-1.1,0.8-2.2,1.5-3.5,2.2V41.6c0.3-0.2,0.6-0.3,0.9-0.5C92,41,92.2,40.9,92.3,40.8L92.3,40.8z
		 M44.4,80.3c0.1,0,0.1,0,0.2,0c0.1,0,0.2,0,0.2,0l0.4,0c1.1,0,2.3,0.1,3.5,0.1c0.8,0,1.6,0,2.4,0c0.3,0,0.5,0,0.8,0
		c0.1,0,0.2,0,0.3,0c0.2,0,0.3,0,0.5,0c0.3,0,0.5,0,0.8,0c0.3,0,0.6,0,0.9-0.1c0.5,0,1-0.1,1.4-0.1c0.3,0,0.7-0.1,1-0.1
		c0.4,0,0.9-0.1,1.3-0.1c0.3,0,0.7-0.1,1-0.1c0.4,0,0.9-0.1,1.3-0.1c0.3,0,0.7-0.1,1-0.1c0.4-0.1,0.8-0.1,1.2-0.2
		c0.3-0.1,0.7-0.1,1-0.2c0.4-0.1,0.8-0.1,1.2-0.2c0.3-0.1,0.7-0.1,1-0.2c0.4-0.1,0.8-0.1,1.1-0.2c0.3-0.1,0.7-0.1,1-0.2
		c0.4-0.1,0.7-0.2,1.1-0.2c0.3-0.1,0.6-0.2,1-0.2c0.4-0.1,0.7-0.2,1.1-0.3c0.3-0.1,0.6-0.2,0.9-0.2c0.4-0.1,0.7-0.2,1-0.3
		c0.3-0.1,0.6-0.2,0.9-0.3c0.3-0.1,0.7-0.2,1-0.3c0.3-0.1,0.6-0.2,0.9-0.3c0.3-0.1,0.6-0.2,1-0.3c0.3-0.1,0.6-0.2,0.8-0.3
		c0.3-0.1,0.6-0.2,0.9-0.4c0.3-0.1,0.5-0.2,0.8-0.3c0.3-0.1,0.6-0.3,0.9-0.4c0.3-0.1,0.5-0.2,0.8-0.4c0.3-0.1,0.6-0.3,0.9-0.4
		c0.3-0.1,0.5-0.2,0.8-0.4c0.3-0.1,0.5-0.3,0.8-0.4c0.2-0.1,0.5-0.3,0.7-0.4c0.3-0.1,0.5-0.3,0.8-0.4c0.2-0.1,0.5-0.3,0.7-0.4
		c0.2-0.2,0.5-0.3,0.7-0.5c0.2-0.1,0.4-0.3,0.6-0.4c0.2-0.2,0.5-0.3,0.7-0.5c0.2-0.1,0.4-0.3,0.6-0.4c0.2-0.2,0.4-0.3,0.6-0.5
		c0.2-0.1,0.4-0.3,0.5-0.5c0.2-0.2,0.4-0.4,0.6-0.5c0.2-0.2,0.3-0.3,0.5-0.5c0.2-0.2,0.4-0.4,0.5-0.5c0.2-0.2,0.3-0.3,0.5-0.5
		c0.2-0.2,0.3-0.4,0.5-0.5c0.1-0.2,0.3-0.3,0.4-0.5c0.1-0.2,0.3-0.4,0.4-0.6c0.1-0.2,0.3-0.3,0.4-0.5c0.1-0.1,0.2-0.3,0.3-0.4
		c1.6,1.3,2.4,2.7,2.4,3.9c0,4.8-13,14-36.9,14c-7.2,0-13.2-0.8-17.9-2C42.4,80.2,43.4,80.2,44.4,80.3L44.4,80.3z M75.1,72.7V62.1
		c0.1,0,0.2-0.1,0.3-0.1c0.6-0.2,1.3-0.5,1.9-0.7c0.4-0.2,0.8-0.4,1.3-0.5v10.6C77.5,71.8,76.3,72.2,75.1,72.7L75.1,72.7z
		 M67.7,64.2c0.7-0.2,1.5-0.3,2.2-0.5c0.6-0.2,1.1-0.3,1.7-0.5v10.6c-1.7,0.5-3.5,0.9-5.3,1.3V64.5C66.8,64.4,67.2,64.3,67.7,64.2
		L67.7,64.2z M82.1,69.6V59.4c1.2-0.4,2.4-0.8,3.5-1.2v9.1C84.6,68.2,83.4,68.9,82.1,69.6L82.1,69.6z M57.5,65.9
		c0.6-0.1,1.1-0.1,1.7-0.2c0.9-0.1,1.7-0.2,2.5-0.3c0.4-0.1,0.7-0.1,1-0.2v10.6c-0.1,0-0.3,0.1-0.4,0.1c-0.5,0.1-1.1,0.2-1.6,0.2
		c-0.4,0.1-0.8,0.1-1.2,0.2c-0.9,0.1-1.8,0.2-2.8,0.3c-0.3,0-0.6,0.1-0.9,0.1c0,0-0.1,0-0.1,0V66C56.3,66,56.9,65.9,57.5,65.9
		L57.5,65.9z M92.7,56.5c0,1.3-0.3,2.6-0.9,3.9l-0.2,0.3c-0.5,1.1-1.2,2.1-2.1,3.1c-0.1,0.1-0.2,0.2-0.3,0.4c0,0,0,0-0.1,0.1v-7.5
		c1.2-0.5,2.4-1.1,3.5-1.7V56.5z M29.4,87.2c1.1,0.5,2.3,0.9,3.5,1.3V99c-1.2-0.4-2.4-0.9-3.5-1.4V87.2z M36.4,89.6
		c1.7,0.5,3.5,0.9,5.3,1.3v10.5c-1.8-0.4-3.6-0.8-5.3-1.3V89.6z M45.2,91.6c0.3,0,0.6,0.1,0.8,0.1c0.4,0.1,0.9,0.1,1.3,0.2
		c0.7,0.1,1.3,0.2,2,0.3c0.7,0.1,1.3,0.1,2,0.2c0.3,0,0.6,0.1,0.9,0.1V103c-2.4-0.2-4.8-0.5-7-0.8V91.6z M101.5,33.4V39
		c0,2.7-1.3,5.4-3.5,7.8V37c0.1-0.1,0.2-0.2,0.3-0.3c0.1-0.1,0.2-0.2,0.3-0.3c0.4-0.4,0.9-0.8,1.3-1.2c0.1-0.1,0.2-0.2,0.3-0.3
		c0.4-0.5,0.9-0.9,1.3-1.4C101.4,33.5,101.4,33.4,101.5,33.4L101.5,33.4z M57.5,4.8c24.6,0,44,8.5,44,19.3c0,11.2-20.5,21.1-44,21.1
		c-23.4,0-44-9.9-44-21.1C13.6,13.3,32.9,4.8,57.5,4.8L57.5,4.8z M10,32.4V39c0,0.4,0,0.8,0.1,1.2c0,0.1,0,0.3,0.1,0.4
		c0,0.3,0.1,0.5,0.1,0.8c0,0.2,0.1,0.3,0.1,0.5c0.1,0.2,0.1,0.5,0.2,0.7c0,0.2,0.1,0.3,0.2,0.5c0.1,0.2,0.1,0.4,0.2,0.7
		c0.1,0.2,0.1,0.3,0.2,0.5c0.1,0.2,0.2,0.4,0.3,0.6c0.1,0.2,0.2,0.3,0.3,0.5c0.1,0.2,0.2,0.4,0.3,0.6c0.1,0.2,0.2,0.3,0.3,0.5
		c0.1,0.2,0.3,0.4,0.4,0.6c0.1,0.2,0.2,0.3,0.4,0.5c0.1,0.2,0.3,0.4,0.4,0.6c0.1,0.2,0.3,0.3,0.4,0.5c0.2,0.2,0.3,0.4,0.5,0.5
		c0.1,0.2,0.3,0.3,0.4,0.5c0.2,0.2,0.4,0.4,0.5,0.5c0.2,0.1,0.3,0.3,0.5,0.5c0.2,0.2,0.4,0.4,0.6,0.5c0.2,0.1,0.3,0.3,0.5,0.4
		c0.2,0.2,0.4,0.3,0.6,0.5c0.2,0.1,0.4,0.3,0.6,0.4c0.2,0.2,0.5,0.3,0.7,0.5c0.2,0.1,0.4,0.3,0.6,0.4c0.2,0.2,0.5,0.3,0.8,0.5
		c0.2,0.1,0.4,0.2,0.6,0.4c0.3,0.2,0.6,0.3,0.9,0.5c0.2,0.1,0.4,0.2,0.6,0.3c0.4,0.2,0.7,0.4,1.1,0.6c0.1,0.1,0.3,0.1,0.4,0.2
		c0.5,0.3,1,0.5,1.6,0.8c0.2,0.1,0.4,0.2,0.6,0.2c0.4,0.2,0.7,0.3,1.1,0.5c0.2,0.1,0.5,0.2,0.7,0.3c0.3,0.1,0.7,0.3,1,0.4
		c0.3,0.1,0.5,0.2,0.8,0.3c0.3,0.1,0.7,0.2,1,0.4c0.3,0.1,0.5,0.2,0.8,0.3c0.3,0.1,0.7,0.2,1,0.3c0.3,0.1,0.6,0.2,0.9,0.3
		c0.4,0.1,0.7,0.2,1.1,0.3c0.3,0.1,0.6,0.2,0.9,0.2c0.4,0.1,0.7,0.2,1.1,0.3c0.3,0.1,0.6,0.1,0.9,0.2c0.4,0.1,0.7,0.2,1.1,0.2
		c0.3,0.1,0.6,0.1,1,0.2c0.4,0.1,0.8,0.1,1.1,0.2c0.3,0.1,0.6,0.1,1,0.2c0.4,0.1,0.8,0.1,1.2,0.2c0.3,0.1,0.7,0.1,1,0.2
		c0.4,0.1,0.8,0.1,1.2,0.2c0.3,0,0.7,0.1,1,0.1c0.4,0.1,0.9,0.1,1.3,0.1c0.3,0,0.7,0.1,1,0.1c0.4,0,0.9,0.1,1.3,0.1
		c0.3,0,0.7,0.1,1,0.1c0.5,0,0.9,0.1,1.4,0.1c0.3,0,0.6,0,0.9,0.1c0.1,0,0.1,0,0.2,0c-1.4,0.1-2.8,0.1-4.2,0.1
		c-23.4,0-44-9.9-44-21.1C4.8,37.8,7.3,34.7,10,32.4L10,32.4z M4.8,56.5V51c0,0,0.1,0.1,0.1,0.1c0.4,0.5,0.8,1,1.3,1.4
		c0.1,0.1,0.2,0.2,0.3,0.3c0.4,0.4,0.8,0.8,1.3,1.2c0.1,0.1,0.2,0.2,0.3,0.3c0.1,0.1,0.2,0.2,0.3,0.3v9.8C6,61.9,4.8,59.3,4.8,56.5
		L4.8,56.5z M15.3,82.9v-5.6c1,1.2,2.2,2.4,3.5,3.6v9.8C16.6,88.3,15.3,85.7,15.3,82.9L15.3,82.9z M55.8,103.2V92.6
		c0.1,0,0.2,0,0.2,0c1.1,0,2.2,0.1,3.3,0.1c1.1,0,2.2,0,3.3-0.1c0.1,0,0.2,0,0.2,0v10.6c-1.2,0-2.3,0.1-3.5,0.1
		C58.1,103.2,56.9,103.2,55.8,103.2L55.8,103.2z M103.2,77.4v5.6c0,2.7-1.3,5.4-3.5,7.8v-9.8c0.1-0.1,0.2-0.2,0.3-0.3
		c0.1-0.1,0.2-0.2,0.3-0.3c0.4-0.4,0.9-0.8,1.2-1.2c0.1-0.1,0.2-0.2,0.3-0.3c0.5-0.5,0.9-0.9,1.3-1.4
		C103.2,77.4,103.2,77.4,103.2,77.4L103.2,77.4z M103.2,77.4"/>
</g>
</svg>
