<svg version="1.1" id="Layer_1" xmlns="http://www.w3.org/2000/svg" xmlns:xlink="http://www.w3.org/1999/xlink" x="0px" y="0px"
	 viewBox="0 0 108 108" style="enable-background:new 0 0 108 108;" xml:space="preserve" class="icon-laptop">
<g>
	<path fill="#0ea5d0" d="M105.2,89.3h-1.8V38c0-4.5-4.3-8.8-8.8-8.8H73.4c-1,0-1.8,0.8-1.8,1.8c0,1,0.8,1.8,1.8,1.8h21.2
		c2.6,0,5.3,2.7,5.3,5.3v53c0,1,0.8,1.8,1.8,1.8h1.8v5.3c0,2.6-2.7,5.3-5.3,5.3H9.8c-2,0-4.1-1.6-4.9-3.5h93.3c1,0,1.8-0.8,1.8-1.8
		c0-1-0.8-1.8-1.8-1.8H2.7c-1,0-1.8,0.8-1.8,1.8c0,4.5,4.3,8.8,8.8,8.8h88.4c4.5,0,8.8-4.3,8.8-8.8V91
		C107,90.1,106.2,89.3,105.2,89.3L105.2,89.3z M105.2,89.3"/>
	<path fill="#0ea5d0" d="M32.7,62.8c0,1,0.8,1.8,1.8,1.8h5.3v1.8c0,1,0.8,1.8,1.8,1.8c1,0,1.8-0.8,1.8-1.8v-1.8h3.5
		c1,0,1.8-0.8,1.8-1.8c0-1-0.8-1.8-1.8-1.8H36.3v-1.8c0-5.2,1.8-7.4,3.7-9.7c1.7-2,3.4-4.2,3.4-8V23.9c0-6.2,2.9-9.2,3.1-9.5l7.5-9
		l7.6,9.1c0.1,0.1,3,3.2,3,9.4v17.7c0,3.8,1.7,5.9,3.4,8c1.9,2.3,3.7,4.5,3.7,9.7V61H61c-1,0-1.8,0.8-1.8,1.8c0,1,0.8,1.8,1.8,1.8
		h3.5v1.8c0,1,0.8,1.8,1.8,1.8c1,0,1.8-0.8,1.8-1.8v-1.8h5.3c1,0,1.8-0.8,1.8-1.8v-3.5c0-6.5-2.5-9.5-4.5-11.9
		c-1.5-1.9-2.6-3.2-2.6-5.7V23.9c0-7.7-3.9-11.7-3.9-11.7L55.3,1.5c-0.7-0.8-2-0.8-2.7,0L43.9,12c-0.2,0.2-4.1,4.1-4.1,11.9v17.7
		c0,2.5-1.1,3.9-2.6,5.7c-2,2.4-4.5,5.5-4.5,11.9V62.8z M32.7,62.8"/>
	<path fill="#0ea5d0" d="M39.8,71.6c-2.7,0-5.1,1.6-6.3,3.9c-0.8-0.3-1.7-0.4-2.5-0.4c-4.9,0-8.8,4-8.8,8.8c0,1,0.8,1.8,1.8,1.8
		c1,0,1.8-0.8,1.8-1.8c0-2.9,2.4-5.3,5.3-5.3c0.9,0,1.8,0.3,2.7,0.8c0.5,0.3,1.1,0.3,1.7,0.1c0.5-0.3,0.9-0.8,1-1.3
		c0.2-1.7,1.7-3,3.5-3c1.8,0,3.3,1.4,3.5,3.2c0.1,0.8,0.6,1.4,1.3,1.6c0.7,0.2,1.5-0.1,1.9-0.8c1.6-2.5,4.4-4,7.4-4
		c3,0,5.8,1.5,7.4,4c0.4,0.6,1.2,0.9,1.9,0.8c0.7-0.2,1.3-0.8,1.3-1.6c0.2-1.8,1.7-3.2,3.5-3.2c1.7,0,3.2,1.3,3.5,3
		c0.1,0.6,0.5,1.1,1,1.3c0.5,0.3,1.2,0.2,1.7-0.1c0.9-0.5,1.8-0.8,2.7-0.8c2.9,0,5.3,2.4,5.3,5.3c0,1,0.8,1.8,1.8,1.8
		c1,0,1.8-0.8,1.8-1.8c0-4.9-4-8.8-8.8-8.8c-0.9,0-1.7,0.1-2.5,0.4c-1.2-2.3-3.6-3.9-6.3-3.9c-2.5,0-4.6,1.2-5.9,3.2
		c-2.2-2-5.2-3.2-8.3-3.2c-3.1,0-6,1.1-8.3,3.2C44.4,72.8,42.3,71.6,39.8,71.6L39.8,71.6z M39.8,71.6"/>
	<path fill="#0ea5d0" d="M61,29.2c0-3.9-3.2-7.1-7.1-7.1c-3.9,0-7.1,3.2-7.1,7.1c0,3.9,3.2,7.1,7.1,7.1C57.9,36.2,61,33.1,61,29.2
		L61,29.2z M54,32.7c-2,0-3.5-1.6-3.5-3.5c0-2,1.6-3.5,3.5-3.5c1.9,0,3.5,1.6,3.5,3.5C57.5,31.1,55.9,32.7,54,32.7L54,32.7z
		 M54,32.7"/>
	<path fill="#0ea5d0" d="M52.2,52.2v14.1c0,1,0.8,1.8,1.8,1.8c1,0,1.8-0.8,1.8-1.8V52.2c0-1-0.8-1.8-1.8-1.8
		C53,50.4,52.2,51.2,52.2,52.2L52.2,52.2z M52.2,52.2"/>
	<path fill="#0ea5d0" d="M6.2,92.8C7.2,92.8,8,92,8,91V38c0-2.6,2.7-5.3,5.3-5.3h21.2c1,0,1.8-0.8,1.8-1.8c0-1-0.8-1.8-1.8-1.8H13.3
		c-4.5,0-8.8,4.3-8.8,8.8v53C4.5,92,5.2,92.8,6.2,92.8L6.2,92.8z M6.2,92.8"/>
	<path fill="#0ea5d0" d="M36.3,38c0-1-0.8-1.8-1.8-1.8H18.6c-2.4,0-7.1,2.2-7.1,5.3V91c0,1,0.8,1.8,1.8,1.8h81.3c1,0,1.8-0.8,1.8-1.8
		V41.5c0-2.7-2.6-5.3-5.3-5.3H73.4c-1,0-1.8,0.8-1.8,1.8c0,1,0.8,1.8,1.8,1.8h17.7c0.8,0,1.8,1,1.8,1.8v47.7H15.1l0-47.6
		c0.2-0.6,2.4-1.9,3.5-1.9h15.9C35.5,39.8,36.3,39,36.3,38L36.3,38z M36.3,38"/>
</g>
</svg>
