<svg version="1.1" id="Layer_1" xmlns="http://www.w3.org/2000/svg" xmlns:xlink="http://www.w3.org/1999/xlink" x="0px" y="0px"
	 viewBox="0 0 372 357.75" style="enable-background:new 0 0 372 357.75;" xml:space="preserve" class="icon-call-center">
<path d="M157.551,196.676c0,10.272-8.327,18.599-18.599,18.599c-10.273,0-18.599-8.327-18.599-18.599
	c0-10.273,8.326-18.601,18.599-18.601C149.224,178.077,157.551,186.403,157.551,196.676L157.551,196.676z M233.048,178.077
	c-10.272,0-18.599,8.327-18.599,18.599c0,10.272,8.327,18.599,18.599,18.599c10.273,0,18.601-8.327,18.601-18.599
	C251.647,186.403,243.32,178.077,233.048,178.077L233.048,178.077z M367.125,186.308v35.348c0,17.747-14.387,32.132-32.134,32.132
	h-23.318C288.568,317.945,229.568,356.693,186,356.693S83.432,317.945,60.327,253.788H37.009c-17.747,0-32.134-14.385-32.134-32.132
	v-35.348c0-12.213,6.814-22.833,16.846-28.27c0.338-50.185,14.964-89.38,43.537-116.475C93.6,14.686,134.223,1.057,186,1.057
	s92.4,13.629,120.743,40.506c28.573,27.096,43.199,66.29,43.537,116.475C360.311,163.476,367.125,174.095,367.125,186.308
	L367.125,186.308z M299.113,196.793c0-8.269-0.422-16.036-1.048-23.565c-14.261-13.047-40.149-22.948-72.824-26.627
	c4.289,4.825,7.995,11.17,10.244,19.523c-20.014-15.766-59.299-12.014-89.013-47.295c-1.705-1.973-3.177-3.854-4.451-5.574
	c-0.016-0.022-0.033-0.037-0.046-0.058h0.005c-5.287-7.148-7.091-11.4-7.191-6.693c-0.873,40.552-29.616,72.167-61.534,76.629
	c-0.202,4.46-0.367,8.961-0.367,13.662c0,17.14,2.799,32.763,7.557,46.842c17.929,21.626,47.539,27.733,73.746,29.351
	c4.864-7.739,15.78-13.142,28.491-13.142c17.235,0,31.206,9.917,31.206,22.15s-13.972,22.152-31.206,22.152
	c-13.257,0-24.553-5.879-29.075-14.155c-18.316-1.064-38.452-4.187-56.396-12.66C122.447,314.529,161.568,334.2,186,334.2
	C224.392,334.2,299.113,285.7,299.113,196.793L299.113,196.793z M330.934,154.174C328.888,66.6,278.902,20.338,186,20.338
	S43.112,66.6,41.066,154.174H53.43c4.52-29.517,14.075-53.791,28.579-72.457C105.128,51.974,140.113,36.893,186,36.893
	s80.872,15.081,103.99,44.823c14.504,18.666,24.06,42.94,28.579,72.457H330.934z M330.934,154.174"/>
</svg>
