<svg version="1.1" id="Layer_1" xmlns="http://www.w3.org/2000/svg" xmlns:xlink="http://www.w3.org/1999/xlink" x="0px" y="0px"
	 viewBox="0 0 108 108" style="enable-background:new 0 0 108 108;" xml:space="preserve" class="icon-coin-pig">
<g>
	<path fill="#0ea5d0" d="M103.9,53.4c-3.4-3.4-8.9-3.4-12.3,0c-1.4,1.4-2.2,3.2-2.2,5.1c0,1.9,0.7,3.8,2.1,5.2c1.2,1.2,3.1,1.8,4.9,1.4
		c2.2-0.4,4-1.8,5-3.9l-4-1.9c-0.4,0.8-1,1.3-1.8,1.4c-0.4,0.1-0.8,0-1-0.2c-1.1-1.1-1.1-2.8,0.1-4c1.7-1.7,4.4-1.7,6.1,0
		c1.1,1.1,1.7,2.6,1.7,4.2s-0.6,3.1-1.7,4.2c-2.6,2.6-8,2.6-11.5,0.2c0,0,0,0,0-0.1c0-19.5-18.9-35.3-40.8-35.3
		c-4.6,0-9.1,0.7-13.3,2c-4-4.8-11.4-7.5-18.1-7.5c-1.7,0-3.4,0.2-5,0.6l4.5,18.1c-2.5,2.7-4.6,5.7-6.1,8.9H3.3
		c-1.2,0-2.2,1-2.2,2.2v26.5c0,1.2,1,2.2,2.2,2.2H13c2.6,4,6.2,7.5,10.4,10.3l-2.1,11.8c-0.2,1.2,0.6,2.2,1.8,2.2h17.6
		c1.2,0,2.4-1,2.6-2.2l0.8-4.6c1.4,0.1,2.9,0.2,4.3,0.2c2.2,0,4.3-0.2,6.4-0.5l0.9,4.9c0.2,1.2,1.4,2.2,2.6,2.2H76
		c1.2,0,2-1,1.8-2.2l-2.4-13.4c7.1-5.4,12-13,13.4-21.4c1.7,0.7,3.5,1.2,5.4,1.3c0.3,0,0.7,0,1,0c3.4,0,6.5-1.2,8.6-3.3
		c1.9-1.9,3-4.5,3-7.3C106.9,57.9,105.8,55.3,103.9,53.4z M27.9,31.4c0.8,0.4,1.8,1.1,2.8,1.9c-3.8,1.6-7.2,3.7-10.3,6.1l-2.7-10.9
		C21.2,28.7,24.9,29.7,27.9,31.4z M39.3,102.5H26.2l1.3-7.2c3.8,1.9,8,3.4,12.3,4.2L39.3,102.5z M73,102.5H59.9L59.3,99
		c4.4-1.1,8.5-2.8,12.2-5L73,102.5z M82,76.8c-1.8,3.7-4.5,7-7.8,9.8c-3.4,2.9-7.3,5.2-11.6,6.8c-4.5,1.7-9.3,2.5-14.1,2.5
		c-6.5,0-13-1.5-18.7-4.4c-5.6-2.8-10.1-6.7-13.1-11.2l-1.3-2H13H5.5V56.2h5.1h2.8l1.2-2.6c1.2-2.7,3-5.3,5.3-7.7
		c2.2-2.4,4.9-4.4,7.9-6.2c3-1.8,6.3-3.2,9.8-4.1c3.6-1,7.3-1.5,11-1.5c4.8,0,9.6,0.8,14.1,2.5c4.4,1.6,8.3,3.9,11.6,6.8
		c3.3,2.9,6,6.2,7.8,9.8C83.9,57,84.9,61,84.9,65C84.9,69.1,83.9,73,82,76.8z"/>
	<path fill="#0ea5d0" d="M25.3,54c-1.2,0-2.2,1-2.2,2.2c0,1.2,1,2.2,2.2,2.2s2.2-1,2.2-2.2C27.5,55,26.6,54,25.3,54z"/>
	<path fill="#0ea5d0" d="M59.1,38.7c-0.2-0.1-4.2-1.2-11.7-1.2c-7.4,0-11.3,1.1-11.6,1.2c-0.9,0.3-1.6,1.1-1.6,2.1c0,1.2,1,2.2,2.2,2.2
		c0.2,0,0.5,0,0.7-0.1c0.2-0.1,3.7-1,10.3-1c6.6,0,10.2,1,10.4,1c0.2,0.1,0.4,0.1,0.7,0.1c1.2,0,2.2-1,2.2-2.2
		C60.6,39.8,60,38.9,59.1,38.7z"/>
	<path fill="#0ea5d0" d="M47.4,27.5c7.3,0,13.2-5.9,13.2-13.2S54.7,1.1,47.4,1.1S34.2,7,34.2,14.3S40.1,27.5,47.4,27.5z M47.4,5.5
		c4.9,0,8.8,4,8.8,8.8s-4,8.8-8.8,8.8s-8.8-4-8.8-8.8S42.5,5.5,47.4,5.5z"/>
	<path fill="#0ea5d0" d="M47.4,18.8c1.2,0,2.2-1,2.2-2.2v-4.4c0-1.2-1-2.2-2.2-2.2s-2.2,1-2.2,2.2v4.4C45.2,17.8,46.2,18.8,47.4,18.8z"
		/>
</g>
</svg>
