<svg version="1.1" id="Layer_1" xmlns="http://www.w3.org/2000/svg" xmlns:xlink="http://www.w3.org/1999/xlink" x="0px" y="0px"
	 viewBox="0 0 108 98" style="enable-background:new 0 0 108 98;" xml:space="preserve" class="icon-work">
<path fill="#FFFFFF" d="M99.7,27.1H73.3v-4.6c0-4.7-3.8-8.5-8.5-8.5H43.2c-4.7,0-8.5,3.8-8.5,8.5v4.6H8.3c-4.1,0-7.4,3.3-7.4,7.4v52.1
	c0,4.1,3.3,7.4,7.4,7.4h91.4c4.1,0,7.4-3.3,7.4-7.4V34.5C107.1,30.4,103.8,27.1,99.7,27.1z M39,22.5c0-2.4,1.9-4.3,4.3-4.3h21.5
	c2.4,0,4.3,1.9,4.3,4.3v4.6H39V22.5z M102.9,86.6c0,1.8-1.4,3.2-3.2,3.2H8.3c-1.8,0-3.2-1.4-3.2-3.2V45.8l32.5,15.8
	c0.7,4,4.2,7.1,8.4,7.1H62c4.2,0,7.7-3.1,8.4-7.1l20.3-9.8c1.1-0.5,1.5-1.8,1-2.8c-0.5-1.1-1.8-1.5-2.8-1L69.9,57
	c-1.2-3.1-4.3-5.4-7.9-5.4H46c-3.6,0-6.6,2.2-7.9,5.4l-33-16v-6.5c0-1.8,1.4-3.2,3.2-3.2h91.4c1.8,0,3.2,1.4,3.2,3.2V86.6z
	 M41.7,60.1c0-2.3,1.9-4.2,4.2-4.2H62c2.3,0,4.2,1.9,4.2,4.2c0,2.3-1.9,4.2-4.2,4.2H46C43.6,64.4,41.7,62.5,41.7,60.1z"/>
</svg>
