<svg version="1.1" id="Layer_1" xmlns="http://www.w3.org/2000/svg" xmlns:xlink="http://www.w3.org/1999/xlink" x="0px" y="0px"
	 viewBox="-49.667 193.167 513.333 407.667" style="enable-background:new -49.667 193.167 513.333 407.667;" xml:space="preserve" class="icon-gps">
<g>
	<path style="fill:#FFFFFF;" d="M53.057,267.677c0-16.334-13.29-29.624-29.624-29.624s-29.624,13.29-29.624,29.624
		c0,16.335,13.29,29.625,29.624,29.625S53.057,284.012,53.057,267.677z M23.433,275.99c-4.584,0-8.313-3.73-8.313-8.314
		s3.73-8.313,8.313-8.313c4.584,0,8.313,3.728,8.313,8.313S28.016,275.99,23.433,275.99z"/>
	<path style="fill:#FFFFFF;" d="M442.812,328.617V253.38c0-14.565-11.853-26.429-26.432-26.447l-333.163-0.167
		c-2.603-3.786-5.579-7.359-8.926-10.66c-13.908-13.717-32.319-21.141-51.883-20.852C-16.734,195.796-48.768,228.089-49,267.24
		c-0.068,11.602,2.674,23.157,7.93,33.42c0.104,0.204,17.329,29.086,17.329,29.086v242.348c0,14.577,11.86,26.437,26.432,26.437
		l413.663,0.224c14.589,0,26.458-11.865,26.458-26.448V432.323c0,0,12.153-20.381,12.257-20.586
		c5.188-10.129,7.931-21.534,7.931-32.982C462.999,359.886,455.834,342.168,442.812,328.617z M369.954,248.221l-51.448,51.448
		l-51.5-51.5L369.954,248.221z M304.942,313.232l-89.665,89.665l-32.784-32.784c-0.002-0.002-0.003-0.003-0.005-0.005
		c-0.002-0.002-0.003-0.003-0.005-0.005l-24.592-24.592l89.665-89.664L304.942,313.232z M126.386,439.776l49.322-49.322
		l63.367,63.367l-49.322,49.322L126.386,439.776z M138.407,478.922L83.08,534.248l-44.332-44.333l55.326-55.326L138.407,478.922z
		 M87.931,300.659c5.188-10.129,7.931-21.534,7.931-32.982c0-6.725-0.928-13.298-2.686-19.596l134.953,0.068l-83.799,83.799
		l-30.007-30.007c-3.745-3.744-9.817-3.744-13.563,0c-3.746,3.746-3.746,9.818,0,13.564l61.386,61.386l-49.322,49.322
		l-39.946-39.946c-3.746-3.744-9.817-3.744-13.563,0c-3.746,3.745-3.746,9.818,0,13.564l21.196,21.196l-82.94,82.939V365.464
		l7.568,12.684c3.881,6.504,10.719,10.387,18.292,10.387c7.573,0,14.411-3.883,18.292-10.386
		C41.722,378.148,87.827,300.864,87.931,300.659z M-22.251,290.65c-3.657-7.251-5.487-15.082-5.438-23.284
		c0.164-27.63,22.769-50.421,50.39-50.803c13.817-0.171,26.808,5.036,36.624,14.717c3.38,3.334,6.224,7.059,8.518,11.065
		c0.099,0.191,0.209,0.374,0.32,0.557c4.165,7.492,6.388,15.956,6.388,24.777c0,8.091-1.83,15.818-5.439,22.974l-45.671,76.577
		L-22.251,290.65z M2.697,577.22c-2.826,0-5.125-2.298-5.125-5.125v-41.002l27.614-27.614l73.793,73.794L2.697,577.22z
		 M126.119,577.286L96.643,547.81l55.327-55.326l84.861,84.861L126.119,577.286z M203.316,516.705l49.322-49.322l35.816,35.816
		l-49.322,49.322L203.316,516.705z M263.971,577.361l-11.277-11.277l49.322-49.322l60.653,60.653L263.971,577.361z M421.5,572.307
		c0,2.832-2.309,5.136-5.14,5.136l-26.55-0.014l-74.23-74.23l22.341-22.341c3.746-3.746,3.746-9.818,0-13.564
		c-3.746-3.744-9.817-3.744-13.563,0l-22.342,22.342l-42.592-42.592c-0.002-0.002-0.003-0.003-0.005-0.005s-0.003-0.003-0.005-0.005
		L228.84,416.46l36.354-36.354l18.838,18.838c2.081,2.08,4.808,3.121,7.535,3.121c2.727,0,5.455-1.041,7.535-3.121
		c4.161-4.161,4.161-10.908,0-15.07l-18.838-18.838l116.8-116.8l19.297,0.01c2.832,0.003,5.137,2.307,5.137,5.135v59.841
		c-9.847-4.663-20.706-7.058-31.956-6.888c-39.142,0.543-71.174,32.835-71.406,71.986c-0.068,11.602,2.674,23.157,7.93,33.42
		c0.104,0.204,46.209,77.488,46.209,77.488c3.881,6.504,10.719,10.387,18.293,10.387c7.573,0,14.411-3.882,18.291-10.386
		l12.64-21.185v104.265H421.5z M436.249,401.729l-13.449,22.55c-0.004,0.009-0.011,0.017-0.015,0.026l-32.207,54.001l-45.691-76.578
		c-3.657-7.251-5.487-15.082-5.438-23.284c0.163-27.63,22.769-50.42,50.391-50.803c13.79-0.188,26.807,5.035,36.622,14.716
		c9.818,9.683,15.226,22.61,15.226,36.399C441.688,386.846,439.858,394.574,436.249,401.729z"/>
	<path style="fill:#FFFFFF;" d="M390.57,349.131c-16.335,0-29.624,13.29-29.624,29.625c0,16.334,13.29,29.624,29.624,29.624
		c16.335,0,29.624-13.29,29.624-29.624C420.194,362.42,406.905,349.131,390.57,349.131z M390.57,387.068
		c-4.584,0-8.313-3.728-8.313-8.313s3.728-8.314,8.313-8.314c4.584,0,8.313,3.73,8.313,8.314S395.154,387.068,390.57,387.068z"/>
</g>
</svg>
