<svg version="1.1" id="Layer_1" xmlns="http://www.w3.org/2000/svg" xmlns:xlink="http://www.w3.org/1999/xlink" x="0px" y="0px"
	 viewBox="-51.75 138.25 517.5 517.5" style="enable-background:new -51.75 138.25 517.5 517.5;" xml:space="preserve" class="icon-whatsapp">
<g>
	<path d="M206.117,141C65.759,141-49,255.759-49,395.234c0,45.903,12.359,90.041,35.31,129.766L-49,653l130.648-35.31
		C119.607,638.876,161.979,653,206.117,653C346.476,653,463,534.71,463,395.234S346.476,141,206.117,141z M207,608.862
		c-39.724,0-77.683-12.359-110.345-32.662l-7.945-4.414l-75.917,19.421l20.303-74.152L27.8,509.11
		C6.614,475.566-4.862,435.841-4.862,395.234c0-116.524,94.455-210.097,210.979-210.097s212.745,92.69,212.745,210.097
		S322.641,608.862,207,608.862z"/>
	<path d="M335,451.731l-55.614-25.6c-3.531-1.766-7.945-0.883-10.593,2.648l-22.069,28.248c-1.766,1.766-4.414,2.648-7.062,1.766
		c-15.007-5.297-65.324-26.483-92.69-79.448c-0.883-2.648-0.883-5.297,0.883-7.062l21.186-23.834
		c1.766-2.648,2.648-6.179,1.766-8.828l-25.6-57.379c-0.883-2.648-3.531-5.297-7.062-5.297l-16.772-0.883
		c-5.297,0-10.593,1.766-14.124,5.297c-7.945,7.062-21.186,20.303-24.717,37.959c-6.179,26.483,3.531,58.262,26.483,90.041
		c22.952,31.779,67.09,82.979,144.772,105.048c24.717,7.062,44.138,2.648,60.028-7.062c12.359-7.945,20.303-20.303,22.952-33.545
		l2.648-12.359C340.297,457.91,338.531,453.497,335,451.731z"/>
</g>
</svg>
