<svg version="1.1" id="Layer_1" xmlns="http://www.w3.org/2000/svg" xmlns:xlink="http://www.w3.org/1999/xlink" x="0px" y="0px"
	 viewBox="0 0 108 108" style="enable-background:new 0 0 108 108;" xml:space="preserve" class="icon-24h">
<g>
	<g transform="translate(1 1)">
		<path fill="#0ea5d0" d="M31.7,58.4c-0.4,0-0.7-0.2-1.1-0.4c-0.4-0.4-10.2-8.4-11.4-20.9c-0.2-0.9,0.5-1.8,1.6-2
			c1.1-0.2,1.8,0.5,2,1.6C23.8,47.6,33,55.1,33,55.1c0.7,0.5,0.9,1.8,0.2,2.5C32.6,58.2,32.2,58.4,31.7,58.4z"/>
		<path fill="#0ea5d0" d="M70.3,106.6c-4.6,0-9.6-1.4-14.6-4.3c-3-1.6-5.9-3.9-8.8-6.8l0,0L10.3,58.9C6.9,55.5,4.2,51.7,2.4,48
			C-2.9,36.6-1,26.2,8,17.3l4.5-4.5c2.7-2.7,7-3.4,10.4-1.6c6.8,3.6,14.1,16.1,14.5,16.6c1.3,2.3,1.8,4.6,1.3,6.6
			c-0.4,1.4-1.4,2.7-2.7,3.6c-2.1,1.8-4.6,4.1-5.2,4.6c-2.9,4.3-2.5,7.5,1.1,11.3l20.4,20.5c3.6,3.6,7,3.9,11.3,1.1
			c0.5-0.4,2.9-2.9,4.6-5.2c0.9-1.4,2.1-2.3,3.6-2.7c2-0.5,4.5-0.2,6.6,1.1c0.5,0.4,13,7.7,16.6,14.5c1.8,3.4,1.3,7.7-1.6,10.4
			l-4.5,4.6C83.1,103.7,76.9,106.6,70.3,106.6z M49.4,93.2c2.5,2.5,5.2,4.6,7.9,6.1c10.9,6.1,20.4,4.8,28.8-3.6l4.5-4.5
			c1.6-1.6,2-4.1,0.9-6.1c-3-5.9-15.2-13-15.2-13c-1.4-0.7-2.9-1.1-3.9-0.9c-0.7,0.2-1.1,0.5-1.4,1.3v0.2c-1.3,1.6-4.3,5.2-5.5,5.9
			c-5.7,3.8-10.9,3.2-15.7-1.6L29,56.4c-4.8-4.8-5.4-10.2-1.6-15.7c0.7-1.1,4.5-4.1,5.9-5.5l0.2-0.2c0.7-0.4,1.1-0.9,1.3-1.4
			c0.4-1.1,0-2.5-0.9-3.9c0-0.2-7.1-12.1-13-15.2c-1.8-1.1-4.3-0.7-5.9,0.9l-4.5,4.5C2.6,27.6,1,36.4,5.6,46.4
			c1.6,3.4,3.9,6.8,7.1,10L49.4,93.2L49.4,93.2z"/>
		<path fill="#0ea5d0" d="M88.7,42.3c-1.1,0-1.8-0.7-1.8-1.8v-5.4H78c-0.7,0-1.3-0.4-1.6-1.1c-0.4-0.5-0.2-1.3,0.2-1.8L87.3,18
			c0.5-0.5,1.3-0.9,2-0.5c0.7,0.2,1.3,0.9,1.3,1.6v12.5h1.8c1.1,0,1.8,0.7,1.8,1.8c0,1.1-0.7,1.8-1.8,1.8h-1.8v5.4
			C90.5,41.6,89.8,42.3,88.7,42.3z M81.5,31.6h5.4v-7.1L81.5,31.6z"/>
		<path fill="#0ea5d0" d="M74.4,42.3H61.2c-1.3,0-2.3-0.7-2.7-1.8s-0.2-2.3,0.9-3.2L70.1,28c1.4-1.4,1.4-3.4,0.9-4.6
			c-0.7-1.6-2-2.5-3.8-2.5l0,0c-3,0-5.4,2.3-5.4,5.4c0,1.1-0.7,1.8-1.8,1.8c-1.1,0-1.8-0.7-1.8-1.8c0-5,3.9-8.9,8.9-8.9h0.2
			c3,0,5.7,1.8,6.8,4.8c1.3,3,0.5,6.3-1.8,8.6l-9.3,8h11.3c1.1,0,1.8,0.7,1.8,1.8S75.5,42.3,74.4,42.3z"/>
		<path fill="#0ea5d0" d="M47.6,60.1c-0.5,0-0.9-0.2-1.3-0.5c-0.5-0.4-0.7-1.1-0.5-1.8l3.4-14.3c-2.3-4.1-3.4-8.9-3.4-13.8
			C45.8,13,59.4-0.6,76.2-0.6s30.4,13.6,30.4,30.4S93,60.1,76.2,60.1c-5.2,0-10.4-1.4-14.8-3.9l-13.2,3.9
			C48,60.1,47.8,60.1,47.6,60.1z M61.5,52.5c0.4,0,0.7,0,0.9,0.2c4.1,2.5,8.9,3.8,13.8,3.8c14.8,0,26.8-12,26.8-26.8S91,3,76.2,3
			S49.4,15,49.4,29.8c0,4.5,1.1,8.9,3.2,12.9c0.2,0.4,0.4,0.9,0.2,1.3l-2.9,12L61,52.6C61.2,52.6,61.4,52.5,61.5,52.5z"/>
	</g>
	<path fill="#0ea5d0" d="M71.8,87.9L71.8,87.9c-12.5-1.3-20.5-9.1-20.7-9.5c-0.7-0.7-0.7-1.8,0-2.5s1.8-0.7,2.5,0c0,0,7.5,7.3,18.4,8.4
		c0.9,0.2,1.6,0.9,1.6,2C73.4,87.2,72.7,87.9,71.8,87.9z"/>
</g>
</svg>
