<?xml version="1.0" encoding="utf-8"?>
<!-- Generator: Adobe Illustrator 17.0.0, SVG Export Plug-In . SVG Version: 6.00 Build 0)  -->
<!DOCTYPE svg PUBLIC "-//W3C//DTD SVG 1.1//EN" "http://www.w3.org/Graphics/SVG/1.1/DTD/svg11.dtd">
<svg version="1.1" id="Layer_1" xmlns="http://www.w3.org/2000/svg" xmlns:xlink="http://www.w3.org/1999/xlink" x="0px" y="0px"
	 width="102.685px" height="55.705px" viewBox="0 0 102.685 55.705" enable-background="new 0 0 102.685 55.705"
	 xml:space="preserve">
<g>
	<rect x="-443" y="0" fill="#FC3722" width="102.685" height="55.705"/>
	<rect x="-417.126" y="5" fill="#FFA700" width="51" height="10.333"/>
	<rect x="-417.126" y="17" fill="#FFA700" width="21.833" height="10.333"/>
	<rect x="-393.293" y="17" fill="#FFA700" width="27" height="24.047"/>
	<rect x="-417.126" y="29" fill="#FFA700" width="21.833" height="21.714"/>
	<rect x="-393.293" y="43.047" fill="#FFA700" width="27" height="7.667"/>
</g>
<g>
	<rect x="-227" y="0" fill="#414447" width="102.685" height="55.705"/>
	<rect x="-156.824" y="0" fill="#1E2021" width="32.509" height="55.705"/>
	<g>
		<rect x="-219.074" y="4.599" fill="#00CAB5" width="5" height="3.063"/>
		<rect x="-213.137" y="4.599" fill="#00CAB5" width="17" height="3.063"/>
		<rect x="-195.074" y="4.599" fill="#00CAB5" width="7.938" height="3.063"/>
		<rect x="-216.074" y="9.599" fill="#00CAB5" width="15.938" height="3.063"/>
		<rect x="-199.074" y="9.599" fill="#00CAB5" width="6" height="3.063"/>
		<rect x="-213.137" y="14.662" fill="#00CAB5" width="9" height="3.063"/>
		<rect x="-210.137" y="19.599" fill="#00CAB5" width="14.063" height="3.063"/>
		<rect x="-210.137" y="24.599" fill="#00CAB5" width="14.063" height="3.063"/>
		<rect x="-213.137" y="29.599" fill="#00CAB5" width="3" height="3.063"/>
		<rect x="-216.074" y="34.599" fill="#00CAB5" width="3" height="3.063"/>
		<rect x="-216.074" y="40.662" fill="#00CAB5" width="19.938" height="3.063"/>
		<rect x="-195.074" y="40.662" fill="#00CAB5" width="5" height="3.063"/>
		<rect x="-213.074" y="45.599" fill="#00CAB5" width="9.969" height="3.063"/>
		<rect x="-210.137" y="50.599" fill="#00CAB5" width="17.063" height="3.063"/>
	</g>
	<g>
		<rect x="-154.596" y="4.182" fill="#8423D2" width="4.052" height="3.063"/>
		<rect x="-149.533" y="4.182" fill="#8423D2" width="14.99" height="3.063"/>
		<rect x="-133.565" y="4.182" fill="#8423D2" width="7.021" height="3.063"/>
		<rect x="-154.596" y="9.245" fill="#8423D2" width="14.083" height="3.063"/>
		<rect x="-139.565" y="9.245" fill="#8423D2" width="5.021" height="3.063"/>
		<rect x="-154.596" y="14.245" fill="#8423D2" width="8.021" height="3.063"/>
		<rect x="-150.586" y="19.245" fill="#8423D2" width="12.01" height="3.063"/>
		<rect x="-150.586" y="24.245" fill="#8423D2" width="12.01" height="3.063"/>
	</g>
</g>
<g>
	<rect x="0" y="0" fill="#1E2021" width="102.685" height="55.705"/>
	<rect x="0" y="11.567" fill="#FFA700" width="72.396" height="44.137"/>
	<rect x="56.062" y="16.234" fill="#8423D2" width="32.667" height="39.471"/>
	<rect x="83.062" y="31.901" fill="#00CAB5" width="12.667" height="23.804"/>
</g>
<g>
	<circle fill="#0086F8" cx="229.28" cy="28.368" r="18.688"/>
	<circle fill="#FFBD00" cx="236.03" cy="4.368" r="10.938"/>
	<circle fill="#00AA4B" cx="209.405" cy="37.305" r="10.938"/>
	<circle fill="#FC3722" cx="245.999" cy="46.055" r="16.219"/>
</g>
</svg>
