<?xml version="1.0" encoding="utf-8"?>
<!-- Generator: Adobe Illustrator 17.0.0, SVG Export Plug-In . SVG Version: 6.00 Build 0)  -->
<!DOCTYPE svg PUBLIC "-//W3C//DTD SVG 1.1//EN" "http://www.w3.org/Graphics/SVG/1.1/DTD/svg11.dtd">
<svg version="1.1" id="Layer_1" xmlns="http://www.w3.org/2000/svg" xmlns:xlink="http://www.w3.org/1999/xlink" x="0px" y="0px"
	 width="63.75px" height="68.844px" viewBox="0 0 63.75 68.844" enable-background="new 0 0 63.75 68.844" xml:space="preserve">
<g>
	<rect x="-641.467" y="6.57" fill="#FC3722" width="102.685" height="55.705"/>
	<rect x="-615.594" y="11.57" fill="#FFA700" width="51" height="10.333"/>
	<rect x="-615.594" y="23.57" fill="#FFA700" width="21.833" height="10.333"/>
	<rect x="-591.76" y="23.57" fill="#FFA700" width="27" height="24.047"/>
	<rect x="-615.594" y="35.57" fill="#FFA700" width="21.833" height="21.714"/>
	<rect x="-591.76" y="49.617" fill="#FFA700" width="27" height="7.667"/>
</g>
<g>
	<rect x="-425.467" y="6.57" fill="#414447" width="102.685" height="55.705"/>
	<rect x="-355.292" y="6.57" fill="#1E2021" width="32.509" height="55.705"/>
	<g>
		<rect x="-417.542" y="11.169" fill="#00CAB5" width="5" height="3.063"/>
		<rect x="-411.604" y="11.169" fill="#00CAB5" width="17" height="3.063"/>
		<rect x="-393.542" y="11.169" fill="#00CAB5" width="7.938" height="3.063"/>
		<rect x="-414.542" y="16.169" fill="#00CAB5" width="15.938" height="3.063"/>
		<rect x="-397.542" y="16.169" fill="#00CAB5" width="6" height="3.063"/>
		<rect x="-411.604" y="21.231" fill="#00CAB5" width="9" height="3.063"/>
		<rect x="-408.604" y="26.169" fill="#00CAB5" width="14.063" height="3.063"/>
		<rect x="-408.604" y="31.169" fill="#00CAB5" width="14.063" height="3.063"/>
		<rect x="-411.604" y="36.169" fill="#00CAB5" width="3" height="3.063"/>
		<rect x="-414.542" y="41.169" fill="#00CAB5" width="3" height="3.063"/>
		<rect x="-414.542" y="47.231" fill="#00CAB5" width="19.938" height="3.063"/>
		<rect x="-393.542" y="47.231" fill="#00CAB5" width="5" height="3.063"/>
		<rect x="-411.542" y="52.169" fill="#00CAB5" width="9.969" height="3.063"/>
		<rect x="-408.604" y="57.169" fill="#00CAB5" width="17.063" height="3.063"/>
	</g>
	<g>
		<rect x="-353.063" y="10.752" fill="#8423D2" width="4.052" height="3.063"/>
		<rect x="-348.001" y="10.752" fill="#8423D2" width="14.99" height="3.063"/>
		<rect x="-332.032" y="10.752" fill="#8423D2" width="7.021" height="3.063"/>
		<rect x="-353.063" y="15.814" fill="#8423D2" width="14.083" height="3.063"/>
		<rect x="-338.032" y="15.814" fill="#8423D2" width="5.021" height="3.063"/>
		<rect x="-353.063" y="20.814" fill="#8423D2" width="8.021" height="3.063"/>
		<rect x="-349.053" y="25.814" fill="#8423D2" width="12.01" height="3.063"/>
		<rect x="-349.053" y="30.814" fill="#8423D2" width="12.01" height="3.063"/>
	</g>
</g>
<g>
	<rect x="-198.467" y="6.57" fill="#1E2021" width="102.685" height="55.705"/>
	<rect x="-198.467" y="18.137" fill="#FFA700" width="72.396" height="44.137"/>
	<rect x="-142.405" y="22.803" fill="#8423D2" width="32.667" height="39.471"/>
	<rect x="-115.405" y="38.47" fill="#00CAB5" width="12.667" height="23.804"/>
</g>
<g>
	<circle fill="#0086F8" cx="30.813" cy="34.938" r="18.688"/>
	<circle fill="#FFBD00" cx="37.563" cy="10.938" r="10.938"/>
	<circle fill="#00AA4B" cx="10.938" cy="43.875" r="10.938"/>
	<circle fill="#FC3722" cx="47.531" cy="52.625" r="16.219"/>
</g>
</svg>
