<svg version="1.1" id="Layer_1" xmlns="http://www.w3.org/2000/svg" xmlns:xlink="http://www.w3.org/1999/xlink" x="0px" y="0px"
	 viewBox="0 0 108 78" style="enable-background:new 0 0 108 78;" xml:space="preserve" class="icon-sunglass">
<g>
	<g>
		<path fill="#FFFFFF" d="M67.2,44.2c-2.2,0.6-3.3,1.9-3.7,2.9c-1.3,2.7,0.2,6,0.4,6.4c1.6,3.6,5.7,13,17,13h0c4.5,0,8.1-1.5,10.6-4.4
			c5.5-6.4,3.9-17.3,3.8-17.8c-0.1-0.6-0.6-1.1-1.2-1.2c-3.8-0.7-7.6-1-11.3-1C77.5,42.1,72.4,42.8,67.2,44.2L67.2,44.2z M80.9,65.1
			L80.9,65.1L80.9,65.1z M80.9,65.1"/>
	</g>
	<path fill="#FFFFFF" d="M40.8,44.2c-5.2-1.4-10.3-2.1-15.6-2.1c-3.7,0-7.5,0.3-11.3,1c-0.6,0.1-1.1,0.6-1.2,1.2
		c-0.1,0.5-1.7,11.4,3.8,17.8c2.5,2.9,6.1,4.4,10.6,4.4h0c11.3,0,15.4-9.4,17-13c0.2-0.5,1.7-3.7,0.4-6.4
		C44.1,46.1,43.1,44.8,40.8,44.2L40.8,44.2z M18.3,47c-0.1,1.3-0.1,2.6-0.1,3.7c0,0.8-0.6,1.5-1.4,1.5c0,0,0,0,0,0
		c-0.8,0-1.4-0.6-1.4-1.4c0-1.2,0-2.6,0.1-4c0.1-0.8,0.7-1.4,1.5-1.3C17.8,45.6,18.4,46.3,18.3,47L18.3,47z M18.3,47"/>
	<path fill="#FFFFFF" d="M105.1,38c-14.2-3.3-27.9-3-44.6,0.9L60.2,39c-1.9,0.5-4.5,1-6.2,1c-1.7,0-4.2-0.5-6.2-1l-0.3-0.1
		C30.8,35,17,34.7,2.9,38c-0.7,0.2-1.2,0.9-1.1,1.6l1,6.6c0.1,0.4,0.3,0.8,0.7,1c0.4,0.2,0.8,0.3,1.2,0.1c0.6-0.2,1-0.2,1.4,0
		c0.4,0.3,0.6,0.8,0.7,1.5c0.3,8.2,1.9,13.8,5,17.5C15,70.3,20,72.2,27,72.2h0c14,0,19.4-10,23.1-16.6c0.5-0.9,1-1.8,1.4-2.6
		c0,0,0-0.1,0.1-0.1c0.8-1.6,1.7-2.2,2.3-2.2c0,0,0,0,0,0c0,0,0,0,0,0c0,0,0,0,0,0c0,0,0,0,0,0c0.6,0,1.5,0.6,2.3,2.2
		c0,0,0,0.1,0,0.1c0.5,0.8,0.9,1.6,1.4,2.6c3.6,6.6,9.1,16.6,23.1,16.6h0c7,0,12-1.9,15.3-5.9c3.1-3.7,4.7-9.3,5-17.5
		c0-0.6,0.3-1.2,0.7-1.5c0.3-0.2,0.8-0.2,1.4,0c0.4,0.2,0.9,0.1,1.2-0.1c0.4-0.2,0.6-0.6,0.7-1l1-6.6
		C106.3,38.9,105.9,38.2,105.1,38L105.1,38z M102.6,44.3c-0.8,0-1.6,0.2-2.3,0.6c-1.2,0.8-1.9,2.2-2,3.8c-0.3,7.5-1.7,12.6-4.4,15.8
		c-2.7,3.3-6.9,4.8-13,4.8h0c-5.4,0-9.8-1.7-13.5-5.1c-3.2-3-5.3-6.8-7.1-10.1c-0.5-0.9-1-1.8-1.5-2.6c-1.7-3.4-4-3.8-4.9-3.7h0
		c-0.9,0-3.2,0.3-4.9,3.7c-0.5,0.8-1,1.7-1.5,2.6c-1.8,3.3-3.9,7.1-7.1,10.1c-3.6,3.4-8.1,5.1-13.5,5.1c-6.2,0-10.3-1.5-13-4.8
		c-2.7-3.2-4.1-8.3-4.4-15.8c-0.1-1.6-0.8-3-2-3.8c-0.7-0.4-1.4-0.7-2.3-0.6l-0.6-3.8c13.3-2.8,26.3-2.5,42,1.2l0.3,0.1
		c2.1,0.5,5.2,1.1,6.8,1.1c1.8,0,4.7-0.6,6.8-1.1l0.3-0.1c15.7-3.7,28.8-4,42-1.2L102.6,44.3z M102.6,44.3"/>
</g>
</svg>
