<svg version="1.1" id="Layer_1" xmlns="http://www.w3.org/2000/svg" xmlns:xlink="http://www.w3.org/1999/xlink" x="0px" y="0px"
	 viewBox="0 0 108 108" style="enable-background:new 0 0 108 108;" xml:space="preserve" class="icon-football">
<style type="text/css">
	.st0{fill:#FFFFFF;}
</style>
<g>
	<path class="st0" d="M70.5,39.8l0.4-0.4c0.7-0.7,0.7-1.7,0-2.4c-0.7-0.7-1.7-0.7-2.4,0l-0.4,0.4l-3.5-3.5c-0.7-0.7-1.7-0.7-2.4,0
		c-0.7,0.7-0.7,1.7,0,2.4l3.5,3.5l-7.1,7.1l-3.5-3.5c-0.7-0.7-1.7-0.7-2.4,0c-0.7,0.7-0.7,1.7,0,2.4l3.5,3.5l-7.1,7.1l-3.5-3.5
		c-0.7-0.7-1.7-0.7-2.4,0c-0.7,0.7-0.7,1.7,0,2.4l3.5,3.5l-7.1,7.1l-3.5-3.5c-0.7-0.7-1.7-0.7-2.4,0c-0.7,0.7-0.7,1.7,0,2.4l3.5,3.5
		L37,68.6c-0.7,0.7-0.7,1.7,0,2.4c0.3,0.3,0.8,0.5,1.2,0.5c0.4,0,0.9-0.2,1.2-0.5l0.4-0.4l3.5,3.5c0.3,0.3,0.8,0.5,1.2,0.5
		c0.4,0,0.9-0.2,1.2-0.5c0.7-0.7,0.7-1.7,0-2.4l-3.5-3.5l7.1-7.1l3.5,3.5c0.3,0.3,0.8,0.5,1.2,0.5c0.4,0,0.9-0.2,1.2-0.5
		c0.7-0.7,0.7-1.7,0-2.4l-3.5-3.5l7.1-7.1l3.5,3.5c0.3,0.3,0.8,0.5,1.2,0.5c0.4,0,0.9-0.2,1.2-0.5c0.7-0.7,0.7-1.7,0-2.4l-3.5-3.5
		l7.1-7.1l3.5,3.5c0.3,0.3,0.8,0.5,1.2,0.5c0.4,0,0.9-0.2,1.2-0.5c0.7-0.7,0.7-1.7,0-2.4L70.5,39.8z"/>
	<circle class="st0" cx="20.8" cy="53.7" r="1.7"/>
	<circle class="st0" cx="20.8" cy="63.1" r="1.7"/>
	<path class="st0" d="M81.8,81.9c10.1-10.1,17.5-22.6,21.3-36.3c0,0,0-0.1,0-0.1c0.7-2.6,1.3-5.2,1.8-7.8c0,0,0-0.1,0-0.1
		c1.9-10.8,1.7-21.9-0.6-32.6c0,0,0,0,0,0c0,0,0,0,0,0c0-0.1,0-0.1-0.1-0.2c0,0,0,0,0,0c0-0.1-0.1-0.1-0.1-0.2c0,0,0,0,0,0
		c0-0.1-0.1-0.1-0.1-0.2c0,0,0,0,0,0c0-0.1-0.1-0.1-0.1-0.2c-0.1-0.1-0.1-0.1-0.2-0.1c0,0,0,0,0,0c-0.1,0-0.1-0.1-0.2-0.1
		c0,0,0,0,0,0c-0.1,0-0.1-0.1-0.2-0.1c0,0,0,0,0,0c-0.1,0-0.1,0-0.2-0.1c0,0,0,0,0,0c-5.9-1.3-11.9-1.9-17.9-1.9
		c-10.9,0-21.4,2.1-31.5,6.1C43.4,12,34.1,18.2,26.1,26.1C16,36.2,8.7,48.8,4.8,62.4c0,0,0,0.1,0,0.1C4,65.1,3.4,67.7,3,70.3
		c0,0,0,0.1,0,0.1C1,81.2,1.2,92.4,3.6,103.1c0,0,0,0,0,0c0,0,0,0,0,0c0,0.1,0,0.1,0.1,0.2c0,0,0,0,0,0c0,0.1,0.1,0.1,0.1,0.2
		c0,0,0,0,0,0c0,0.1,0.1,0.1,0.1,0.2c0,0,0,0,0,0c0,0.1,0.1,0.1,0.1,0.2c0.1,0.1,0.1,0.1,0.2,0.1c0,0,0,0,0,0c0.1,0,0.1,0.1,0.2,0.1
		c0,0,0,0,0,0c0.1,0,0.1,0.1,0.2,0.1c0,0,0,0,0,0c0.1,0,0.1,0,0.2,0.1c0,0,0,0,0,0c5.9,1.3,11.9,1.9,17.9,1.9
		c10.9,0,21.4-2.1,31.5-6.1C64.5,96,73.8,89.8,81.8,81.9z M85.2,5c4.7,0,9.5,0.4,14.1,1.2l-1,1c-0.7,0.7-0.7,1.7,0,2.4
		c0.3,0.3,0.8,0.5,1.2,0.5c0.4,0,0.9-0.2,1.2-0.5l1-1c1.5,8.5,1.7,17,0.5,25.2L74.2,5.8C77.8,5.3,81.5,5,85.2,5z M22.7,103
		c-4.7,0-9.5-0.4-14.1-1.2l1-1c0.7-0.7,0.7-1.7,0-2.4c-0.7-0.7-1.7-0.7-2.4,0l-1,1c-1.5-8.5-1.7-17-0.5-25.2l28.1,28.1
		C30.1,102.7,26.5,103,22.7,103z M37.8,101.6L6.4,70.1c0.2-1.3,0.5-2.6,0.8-3.9l34.5,34.5C40.4,101,39.2,101.3,37.8,101.6z
		 M8.2,62.5c3.7-12.6,10.6-24.3,20.3-34c9.6-9.6,21.3-16.5,34-20.2l25.9,25.9c0.3,0.3,0.8,0.5,1.2,0.5s0.9-0.2,1.2-0.5
		c0.7-0.7,0.7-1.7,0-2.4L66.2,7.3c1.3-0.3,2.6-0.6,3.9-0.8l31.5,31.5c-0.2,1.3-0.5,2.6-0.8,3.9l-5.3-5.2c-0.7-0.7-1.7-0.7-2.4,0
		c-0.7,0.7-0.7,1.7,0,2.4l6.6,6.6c-3.7,12.6-10.6,24.3-20.3,34c-9.6,9.6-21.3,16.5-34,20.2L8.2,62.5z"/>
	<path class="st0" d="M32.3,73.3l-3.1,3.1c-0.7,0.7-0.7,1.7,0,2.4c0.3,0.3,0.8,0.5,1.2,0.5c0.4,0,0.9-0.2,1.2-0.5l3.1-3.1
		c0.7-0.7,0.7-1.7,0-2.4C34,72.6,33,72.6,32.3,73.3z"/>
	<path class="st0" d="M13.1,96.5c0.4,0,0.9-0.2,1.2-0.5l3.1-3.1c0.7-0.7,0.7-1.7,0-2.4c-0.7-0.7-1.7-0.7-2.4,0l-3.1,3.1
		c-0.7,0.7-0.7,1.7,0,2.4C12.3,96.4,12.7,96.5,13.1,96.5z"/>
	<path class="st0" d="M76.4,29.2l-3.1,3.1c-0.7,0.7-0.7,1.7,0,2.4c0.3,0.3,0.8,0.5,1.2,0.5c0.4,0,0.9-0.2,1.2-0.5l3.1-3.1
		c0.7-0.7,0.7-1.7,0-2.4C78.1,28.6,77,28.6,76.4,29.2z"/>
	<path class="st0" d="M93.7,12l-3.1,3.1c-0.7,0.7-0.7,1.7,0,2.4c0.3,0.3,0.8,0.5,1.2,0.5c0.4,0,0.9-0.2,1.2-0.5l3.1-3.1
		c0.7-0.7,0.7-1.7,0-2.4C95.4,11.3,94.3,11.3,93.7,12z"/>
</g>
</svg>
