<svg version="1.1" id="Layer_1" xmlns="http://www.w3.org/2000/svg" xmlns:xlink="http://www.w3.org/1999/xlink" x="0px" y="0px"
	 viewBox="0 0 90.58 90.694" style="enable-background:new 0 0 90.58 90.694;" xml:space="preserve" class="icon-twitter">
<path style="fill:#55ACEE;" d="M45.29,0.468c-24.785,0-44.879,20.094-44.879,44.879c0,24.785,20.094,44.879,44.879,44.879
	c24.785,0,44.879-20.094,44.879-44.879C90.169,20.562,70.075,0.468,45.29,0.468z M67.427,38.273
	c0.019,0.461,0.031,0.922,0.031,1.387c0,14.175-10.793,30.523-30.524,30.523c-6.058,0-11.695-1.777-16.441-4.82
	c0.836,0.101,1.691,0.148,2.559,0.148c5.027,0,9.652-1.711,13.324-4.59c-4.695-0.086-8.656-3.187-10.024-7.449
	c0.657,0.125,1.329,0.192,2.02,0.192c0.977,0,1.926-0.133,2.824-0.379c-4.906-0.985-8.605-5.321-8.605-10.516
	c0-0.047,0-0.09,0-0.137c1.449,0.805,3.101,1.289,4.859,1.344c-2.875-1.922-4.769-5.207-4.769-8.93c0-1.965,0.527-3.808,1.453-5.394
	c5.289,6.492,13.195,10.762,22.109,11.211c-0.184-0.785-0.277-1.606-0.277-2.446c0-5.921,4.8-10.726,10.726-10.726
	c3.086,0,5.875,1.301,7.832,3.387c2.442-0.481,4.739-1.375,6.813-2.602c-0.805,2.504-2.504,4.605-4.719,5.934
	c2.168-0.258,4.238-0.836,6.16-1.688C71.341,34.871,69.524,36.761,67.427,38.273z"/>
</svg>
