<svg version="1.1" id="Layer_1" xmlns="http://www.w3.org/2000/svg" xmlns:xlink="http://www.w3.org/1999/xlink" x="0px" y="0px"
	 viewBox="0 0 147 144.7" style="enable-background:new 0 0 147 144.7;" xml:space="preserve" class="logo-likeabird-icon">
<g id="XMLID_2_">
	<circle id="XMLID_4_" fill="#333333" cx="73.5" cy="72.3" r="70.1"/>
	<g>
		<g>
			<path id="XMLID_1_" fill="#FFFFFF" d="M98.7,102.7c-0.3-1.2-0.7-2.4-1.4-3.6c-1.6-3.2-4.1-5.8-7.1-7.6c-1-0.7-2.1-1.4-3.3-2
				c-7.8-4-16.9-2.3-35.9-5.1c-1.3-0.2-2.6-0.5-3.7-0.8c-1.8,7.5,0.3,18.7,8.7,24.9c14.8,10.9,28.7-7.1,32.6,1.6
				c2.1,4.9,6.5,4.4,9.9,2.9c0.6-1.8,0.9-3.7,0.9-5.7C99.3,105.8,99.1,104.2,98.7,102.7z"/>
			<path id="XMLID_3_" fill="#50BE9E" d="M110.1,82.3c-4.8-16.4-23.4-22.8-34.3-29.5c-13.7-8.5-9-28-25-20.8
				C38.1,37.7,30,57.8,36.3,70.8c2.2,4.5,6,8.1,12,10.1c0.4,0.1,0.8,0.3,1.3,0.4c1.2,0.3,2.4,0.6,3.7,0.8
				c19.1,2.8,28.2,1.1,35.9,5.1c1.2,0.6,2.3,1.3,3.3,2c3,1.8,5.5,4.4,7.1,7.6c0.6,1.2,1.1,2.4,1.4,3.6c0.4,1.5,0.6,3.1,0.6,4.7
				c0,2-0.3,3.9-0.9,5.7c-0.1,0.2-0.2,0.5-0.3,0.7c0,0,0,0,0,0l0,0c-0.1,0.2-0.1,0.4-0.1,0.7c0,1.3,1,2.3,2.3,2.3
				c0.7,0,1.2-0.3,1.6-0.7c0.1-0.1,0.1-0.2,0.2-0.3c4.6-5.6,7.3-12.8,7.3-20.6C111.8,89.2,111.2,85.6,110.1,82.3z"/>
		</g>
	</g>
</g>
</svg>
