<svg version="1.1" id="Layer_1" xmlns="http://www.w3.org/2000/svg" xmlns:xlink="http://www.w3.org/1999/xlink" x="0px" y="0px"
	 viewBox="0 0 99.8 90.6" style="enable-background:new 0 0 99.8 90.6;" xml:space="preserve" class="menu-button-burger">
<g>
	<path fill="#FFFFFF" d="M89.9,0.5h-80c-5.3,0-9.6,4.3-9.6,9.6c0,5.3,4.3,9.6,9.6,9.6h80c5.3,0,9.6-4.3,9.6-9.6
		C99.5,4.8,95.2,0.5,89.9,0.5L89.9,0.5z M89.9,0.5"/>
	<path fill="#FFFFFF" d="M89.9,35.7h-80c-5.3,0-9.6,4.3-9.6,9.6c0,5.3,4.3,9.6,9.6,9.6h80c5.3,0,9.6-4.3,9.6-9.6
		C99.5,40,95.2,35.7,89.9,35.7L89.9,35.7z M89.9,35.7"/>
	<path fill="#FFFFFF" d="M89.9,70.9h-80c-5.3,0-9.6,4.3-9.6,9.6c0,5.3,4.3,9.6,9.6,9.6h80c5.3,0,9.6-4.3,9.6-9.6
		C99.5,75.2,95.2,70.9,89.9,70.9L89.9,70.9z M89.9,70.9"/>
</g>
</svg>
