<svg version="1.1" id="Layer_1" xmlns="http://www.w3.org/2000/svg" xmlns:xlink="http://www.w3.org/1999/xlink" x="0px" y="0px"
	 viewBox="0 0 204 203.5" style="enable-background:new 0 0 204 203.5;" xml:space="preserve" class="icon-searcher">
<circle fill="none" cx="83.9" cy="83.6" r="53.8"/>
<path fill="none" d="M83.9,1.3H1.6v82.3C1.6,38.1,38.4,1.3,83.9,1.3z"/>
<path fill="#FFFFFF" d="M83.9,165.9c16.7,0,32.3-5,45.2-13.6c0.2,0.2,0.4,0.5,0.6,0.7l43.5,43.5c6.5,6.5,17.1,6.5,23.7,0
	c6.5-6.5,6.5-17.1,0-23.7l-43.5-43.5c-0.2-0.2-0.5-0.4-0.7-0.6c8.6-13,13.6-28.5,13.6-45.2c0-45.5-36.9-82.3-82.3-82.3
	S1.6,38.1,1.6,83.6C1.6,129,38.4,165.9,83.9,165.9z M83.9,29.8c29.7,0,53.8,24.1,53.8,53.8c0,29.7-24.1,53.8-53.8,53.8
	c-29.7,0-53.8-24.1-53.8-53.8C30.1,53.9,54.2,29.8,83.9,29.8z"/>
</svg>
